<svg width="20px" height="24px" viewBox="0 0 20 24" version="1.1" xmlns="http://www.w3.org/2000/svg" xmlns:xlink="http://www.w3.org/1999/xlink">
    <!-- Generator: sketchtool 49.3 (51167) - http://www.bohemiancoding.com/sketch -->
    <title>A45BF3D3-3094-4F45-88C3-311AE09036D9</title>
    <desc>Created with sketchtool.</desc>
    <defs>
        <path d="M16.2259527,20.8127446 C15.2070021,21.8883036 14.118253,22.8681778 13.0291768,23.7354051 C12.6473986,24.0394137 12.2921737,24.3081095 11.9722093,24.5391949 C11.777224,24.6800175 11.6351454,24.7784202 11.5547002,24.8320503 C11.2188008,25.0559832 10.7811992,25.0559832 10.4452998,24.8320503 C10.3648546,24.7784202 10.222776,24.6800175 10.0277907,24.5391949 C9.70782632,24.3081095 9.35260143,24.0394137 8.97082322,23.7354051 C7.88174698,22.8681778 6.7929979,21.8883036 5.77404732,20.8127446 C2.80240157,17.6760074 1,14.3716045 1,10.9999999 C1.00000008,5.47715244 5.47715256,1 11,1 C16.5228474,1 20.9999999,5.47715244 21,10.9999999 C21,14.3716045 19.1975984,17.6760074 16.2259527,20.8127446 Z M11.7833232,22.3913077 C12.803622,21.5695044 13.8242479,20.6403777 14.7740473,19.6262822 C17.4274016,16.7933109 19,13.8770584 19,11.0919992 C18.9999999,6.62291141 15.418278,3 11,3 C6.58172205,3 3.00000007,6.62291141 3,11.0919992 C3,13.8770584 4.57259843,16.7933109 7.22595268,19.6262822 C8.1757521,20.6403777 9.19637802,21.5695044 10.2166768,22.3913077 C10.4951711,22.615622 10.7576885,22.8189349 11,23 C11.2423115,22.8189349 11.5048289,22.615622 11.7833232,22.3913077 Z M11,14.9999999 C8.790861,14.9999999 7,13.2091389 7,10.9999999 C7,8.79086087 8.790861,6.99999987 11,6.99999987 C13.209139,6.99999987 15,8.79086087 15,10.9999999 C15,13.2091389 13.209139,14.9999999 11,14.9999999 Z M11,12.9999999 C12.1045695,12.9999999 13,12.1045694 13,10.9999999 C13,9.89543037 12.1045695,8.99999987 11,8.99999987 C9.8954305,8.99999987 9,9.89543037 9,10.9999999 C9,12.1045694 9.8954305,12.9999999 11,12.9999999 Z" id="path-1"></path>
    </defs>
    <g id="Index" stroke="none" stroke-width="1" fill="none" fill-rule="evenodd" opacity="0.65">
        <g id="UI-SET" transform="translate(-205.000000, -3161.000000)">
            <g id="Location-Icon" transform="translate(204.000000, 3160.000000)">
                <rect id="Rectangle-8" x="0" y="0" width="24" height="24"></rect>
                <mask id="mask-2" fill="white">
                    <use xlink:href="#path-1"></use>
                </mask>
                <use id="Combined-Shape" fill="#000000" fill-rule="nonzero" xlink:href="#path-1"></use>
            </g>
        </g>
    </g>
</svg>