<svg width="133px" height="32px" viewBox="0 0 133 32" version="1.1" xmlns="http://www.w3.org/2000/svg" xmlns:xlink="http://www.w3.org/1999/xlink">
    <!-- Generator: sketchtool 49.3 (51167) - http://www.bohemiancoding.com/sketch -->
    <title>EF64FF2B-7979-410E-BCFC-08C1C436B858</title>
    <desc>Created with sketchtool.</desc>
    <defs>
        <linearGradient x1="0%" y1="49.9260244%" x2="98.7967655%" y2="49.9260244%" id="linearGradient-1">
            <stop stop-color="#07BABE" offset="0%"></stop>
            <stop stop-color="#047F96" offset="25%"></stop>
            <stop stop-color="#055085" offset="49.2887464%"></stop>
            <stop stop-color="#0763A6" offset="100%"></stop>
        </linearGradient>
        <linearGradient x1="0%" y1="49.9260244%" x2="100%" y2="49.9260247%" id="linearGradient-2">
            <stop stop-color="#07BABE" offset="0%"></stop>
            <stop stop-color="#0884C2" offset="49.132948%"></stop>
            <stop stop-color="#0884C2" offset="97.6878613%"></stop>
        </linearGradient>
    </defs>
    <g id="Index" stroke="none" stroke-width="1" fill="none" fill-rule="evenodd">
        <g id="Desktop-Index-Contracted" transform="translate(-152.000000, -40.000000)">
            <g id="Header" transform="translate(144.000000, 32.000000)">
                <g id="Logo">
                    <rect id="SafeField" x="0" y="0" width="149" height="48"></rect>
                    <g id="LogoPict" transform="translate(8.000000, 8.000000)" fill-rule="nonzero">
                        <g id="Triangle" transform="translate(4.000000, 0.000000)">
                            <polygon id="Shape" fill="#9FDAD9" points="9 0 15 12 21 0"></polygon>
                            <path d="M1.5,0 C1.3,0 1.1,0.1 1,0.3 C0.9,0.5 1,0.7 1.2,0.9 L15,12 L9,0 L1.5,0 Z" id="Shape" fill="#07BABE"></path>
                            <path d="M29,0.3 C28.9,0.1 28.7,0 28.5,0 L21,0 L15,12 L28.8,0.9 C29,0.7 29,0.5 29,0.3 Z" id="Shape" fill="#0884C2"></path>
                        </g>
                        <g id="Base" transform="translate(0.000000, 9.000000)">
                            <path d="M19,14 L0.6,0.5 C0.5,0.4 0.3,0.4 0.2,0.5 C0.1,0.5 0,0.6 0,0.8 L0,22 C0,22.6 0.4,23 1,23 L37,23 C37.6,23 38,22.6 38,22 L38,1 C38,0.8 37.9,0.6 37.7,0.6 C37.5,0.6 37.3,0.5 37.2,0.6 L19,14 Z" id="Shape" fill="url(#linearGradient-1)"></path>
                            <path d="M19,14 L0.6,0.5 C0.5,0.4 0.3,0.4 0.2,0.5 C0.1,0.5 0,0.6 0,0.8 L0,22 C0,22.6 0.4,23 1,23 L37,23 C37.6,23 38,22.6 38,22 L38,1 C38,0.8 37.9,0.6 37.7,0.6 C37.5,0.6 37.3,0.5 37.2,0.6 L19,14 Z" id="Shape" fill="url(#linearGradient-2)"></path>
                        </g>
                    </g>
                    <g id="Sign" transform="translate(55.000000, 16.000000)" fill="#0884C2" fill-rule="nonzero">
                        <path d="M52,16 L49,16 L49,4 L45.5,4 C45.2,4 45,3.8 45,3.5 L45,1.5 C45,1.2 45.2,1 45.5,1 L55.5,1 C55.8,1 56,1.2 56,1.5 L56,3.5 C56,3.8 55.8,4 55.5,4 L52,4 L52,16 Z" id="Shape"></path>
                        <path d="M30.5,16 C30.2,16 30,15.8 30,15.5 L30,13.5 C30,13.2 30.2,13 30.5,13 L32,13 L36.4,1.3 C36.5,1.1 36.7,1 36.9,1 L38.2,1 C38.4,1 38.6,1.1 38.7,1.3 L43,13 L44.5,13 C44.8,13 45,13.2 45,13.5 L45,15.5 C45,15.8 44.8,16 44.5,16 L30.5,16 Z M35,13 L40,13 L37.5,6 L35,13 Z" id="Shape"></path>
                        <path d="M26.5,7 C26.8,7 27,7.2 27,7.5 L27,9.5 C27,9.8 26.8,10 26.5,10 L21,10 L21,13 L27.5,13 C27.8,13 28,13.2 28,13.5 L28,15.5 C28,15.8 27.8,16 27.5,16 L18.5,16 C18.2,16 18,15.8 18,15.5 L18,1.5 C18,1.2 18.2,1 18.5,1 L27.5,1 C27.8,1 28,1.2 28,1.5 L28,3.5 C28,3.8 27.8,4 27.5,4 L21,4 L21,7 L26.5,7 Z" id="Shape"></path>
                        <path d="M12.5,16 C12.2,16 12,15.8 12,15.5 L12,7 L7.9,11.6 C7.8,11.7 7.7,11.8 7.5,11.8 C7.3,11.8 7.2,11.7 7.1,11.6 L3,7 L3,15.5 C3,15.8 2.8,16 2.5,16 L0.5,16 C0.2,16 0,15.8 0,15.5 L0,1.5 C0,1.2 0.2,1 0.5,1 L1.8,1 C2,1 2.1,1.1 2.2,1.2 L7.5,8 L12.8,1.2 C12.9,1.1 13,1 13.2,1 L14.5,1 C14.8,1 15,1.2 15,1.5 L15,15.5 C15,15.8 14.8,16 14.5,16 L12.5,16 Z" id="Shape"></path>
                        <path d="M80.2,11.3 C79.6,10.3 79,10 78,10 L77,10 L77,15.5 C77,15.8 76.8,16 76.5,16 L74.5,16 C74.2,16 74,15.8 74,15.5 L74,1.5 C74,1.2 74.2,1 74.5,1 L76.5,1 C76.8,1 77,1.2 77,1.5 L77,7 L78,7 C79,7 79.5,6.8 80.2,5.8 L82.9,1.2 C83,1 83.2,1 83.3,1 L85.2,1 C85.4,1 85.5,1.1 85.6,1.2 C85.7,1.4 85.7,1.5 85.6,1.7 L82.9,6.7 C82.1,7.9 81.6,8.3 81.2,8.5 C81.7,8.7 82.1,9.1 83,10.4 L85.7,15.3 C85.8,15.5 85.8,15.6 85.7,15.8 C85.6,16 85.4,16 85.3,16 L83.4,16 C83.2,16 83.1,15.9 83,15.8 L80.2,11.3 Z" id="Shape"></path>
                        <path d="M71,8 C71,8.3 71,8.7 71,9 C70.7,12.9 67.5,16 63.5,16 C61.5,16 59.7,15.2 58.3,13.9 C58.2,13.8 58.1,13.7 58.1,13.5 C58.1,13.4 58.2,13.2 58.3,13.1 L59.5,12 C59.7,11.8 60,11.8 60.2,12 C61.1,12.8 62.3,13.2 63.5,13.2 C65.6,13.2 67.5,11.9 68,9.9 L63.5,9.9 C63.2,9.9 63,9.7 63,9.4 L63,7.4 C63,7.1 63.2,6.9 63.5,6.9 L68,6.9 C67.5,4.9 65.6,3.6 63.5,3.6 C62.2,3.6 61.1,4 60.2,4.8 C60,5 59.7,5 59.5,4.8 L58.3,3.7 C58.2,3.6 58.1,3.5 58.1,3.3 C58.1,3.1 58.2,3 58.3,2.9 C59.7,1.6 61.5,0.8 63.5,0.8 C67.5,1 70.7,4.1 71,8 Z" id="Shape"></path>
                    </g>
                </g>
            </g>
        </g>
    </g>
</svg>