<svg width="82px" height="83px" viewBox="0 0 82 83" version="1.1" xmlns="http://www.w3.org/2000/svg" xmlns:xlink="http://www.w3.org/1999/xlink">
    <!-- Generator: sketchtool 49.3 (51167) - http://www.bohemiancoding.com/sketch -->
    <title>FC74FF6F-2433-44C6-BA29-A69BB679B0C2</title>
    <desc>Created with sketchtool.</desc>
    <defs>
        <circle id="path-1" cx="32" cy="32" r="32"></circle>
        <filter x="-28.9%" y="-14.8%" width="157.8%" height="159.4%" filterUnits="objectBoundingBox" id="filter-2">
            <feOffset dx="0" dy="10" in="SourceAlpha" result="shadowOffsetOuter1"></feOffset>
            <feGaussianBlur stdDeviation="4.5" in="shadowOffsetOuter1" result="shadowBlurOuter1"></feGaussianBlur>
            <feColorMatrix values="0 0 0 0 0   0 0 0 0 0   0 0 0 0 0  0 0 0 0.289855072 0" type="matrix" in="shadowBlurOuter1"></feColorMatrix>
        </filter>
        <linearGradient x1="0%" y1="49.9260244%" x2="98.7967655%" y2="49.9260244%" id="linearGradient-3">
            <stop stop-color="#07BABE" offset="0%"></stop>
            <stop stop-color="#047F96" offset="25%"></stop>
            <stop stop-color="#055085" offset="49.2887464%"></stop>
            <stop stop-color="#0763A6" offset="100%"></stop>
        </linearGradient>
        <linearGradient x1="0%" y1="49.9260244%" x2="100%" y2="49.9260247%" id="linearGradient-4">
            <stop stop-color="#07BABE" offset="0%"></stop>
            <stop stop-color="#0884C2" offset="49.132948%"></stop>
            <stop stop-color="#0884C2" offset="97.6878613%"></stop>
        </linearGradient>
    </defs>
    <g id="Index" stroke="none" stroke-width="1" fill="none" fill-rule="evenodd">
        <g id="Desktop-Index-Expanded" transform="translate(-860.000000, -4140.000000)">
            <g id="Contacts" transform="translate(0.000000, 4000.000000)">
                <g id="Map-Background">
                    <g id="LogoPict" transform="translate(869.000000, 140.000000)">
                        <g id="Oval-4">
                            <use fill="black" fill-opacity="1" filter="url(#filter-2)" xlink:href="#path-1"></use>
                            <use fill="#FFFFFF" fill-rule="evenodd" xlink:href="#path-1"></use>
                        </g>
                        <g id="Triangle" transform="translate(17.000000, 15.000000)" fill-rule="nonzero">
                            <polygon id="Shape" fill="#9FDAD9" points="9 0 15 12 21 0"></polygon>
                            <path d="M1.5,0 C1.3,0 1.1,0.1 1,0.3 C0.9,0.5 1,0.7 1.2,0.9 L15,12 L9,0 L1.5,0 Z" id="Shape" fill="#07BABE"></path>
                            <path d="M29,0.3 C28.9,0.1 28.7,0 28.5,0 L21,0 L15,12 L28.8,0.9 C29,0.7 29,0.5 29,0.3 Z" id="Shape" fill="#0884C2"></path>
                        </g>
                        <g id="Base" transform="translate(13.000000, 24.000000)" fill-rule="nonzero">
                            <path d="M19,14 L0.6,0.5 C0.5,0.4 0.3,0.4 0.2,0.5 C0.1,0.5 0,0.6 0,0.8 L0,22 C0,22.6 0.4,23 1,23 L37,23 C37.6,23 38,22.6 38,22 L38,1 C38,0.8 37.9,0.6 37.7,0.6 C37.5,0.6 37.3,0.5 37.2,0.6 L19,14 Z" id="Shape" fill="url(#linearGradient-3)"></path>
                            <path d="M19,14 L0.6,0.5 C0.5,0.4 0.3,0.4 0.2,0.5 C0.1,0.5 0,0.6 0,0.8 L0,22 C0,22.6 0.4,23 1,23 L37,23 C37.6,23 38,22.6 38,22 L38,1 C38,0.8 37.9,0.6 37.7,0.6 C37.5,0.6 37.3,0.5 37.2,0.6 L19,14 Z" id="Shape" fill="url(#linearGradient-4)"></path>
                        </g>
                    </g>
                </g>
            </g>
        </g>
    </g>
</svg>