<svg width="20" height="14" viewBox="14 16 20 14" version="1.1" xmlns="http://www.w3.org/2000/svg">
  <path d="M15,24 C14.4477153,24 14,23.5522847 14,23 C14,22.4477153 14.4477153,22 15,22 L33,22 C33.5522847,22 34,22.4477153 34,23 C34,23.5522847 33.5522847,24 33,24 L15,24 Z M15,18 C14.4477153,18 14,17.5522847 14,17 C14,16.4477153 14.4477153,16 15,16 L33,16 C33.5522847,16 34,16.4477153 34,17 C34,17.5522847 33.5522847,18 33,18 L15,18 Z M15,30 C14.4477153,30 14,29.5522847 14,29 C14,28.4477153 14.4477153,28 15,28 L33,28 C33.5522847,28 34,28.4477153 34,29 C34,29.5522847 33.5522847,30 33,30 L15,30 Z"></path>
</svg>