<svg width="22px" height="22px" viewBox="0 0 22 22" version="1.1" xmlns="http://www.w3.org/2000/svg" xmlns:xlink="http://www.w3.org/1999/xlink">
    <!-- Generator: sketchtool 49.3 (51167) - http://www.bohemiancoding.com/sketch -->
    <title>E505F53B-A264-4015-959D-1A500D168138</title>
    <desc>Created with sketchtool.</desc>
    <defs>
        <path d="M20.9993762,16.97582 C21.0123584,16.4412782 20.6402675,16.0030634 20.14338,15.9330734 C19.1021698,15.796042 18.0798367,15.5419128 17.0936119,15.174685 C16.7259242,15.0367671 16.3114218,15.1249791 16.0361076,15.3966251 L14.7582873,16.6717133 C14.4380143,16.9913016 13.9432217,17.0579552 13.5494882,16.8345508 C10.8730911,15.3159633 8.65707415,13.1046844 7.13523275,10.4340097 C6.9113497,10.0411181 6.9781461,9.5473834 7.29841918,9.2277951 L8.57226966,7.95669047 C8.84846754,7.67798143 8.93686852,7.26436529 8.797805,6.89519859 C8.43064053,5.91334754 8.17596682,4.89320033 8.03990553,3.86344724 C7.96922338,3.36443971 7.5387706,2.99504183 7.02384557,3.00005032 L4.00631995,3.00004988 C3.72388858,3.00031528 3.45457302,3.11901946 3.26416081,3.32716575 C3.07374859,3.53531203 2.97977407,3.81373301 3.0036506,4.07875528 C3.31722638,7.02531825 4.3219657,9.85673997 5.94123374,12.3510436 C7.40680403,14.6524931 9.36221229,16.6037205 11.6764206,18.0711714 C14.1573755,19.6766216 16.9811316,20.678985 19.9026726,20.9959211 C20.1848314,21.0213667 20.4646659,20.9269315 20.6734286,20.7358156 C20.8821913,20.5446997 21.0005344,20.2746153 20.9993762,19.9878394 L20.9993762,16.97582 Z M22.9993595,19.9790532 C23.0028056,20.8265848 22.6481556,21.636293 22.022537,22.2092551 C21.3969183,22.7822172 20.5583122,23.0653323 19.694635,22.9872483 C16.4455488,22.6348236 13.3245728,21.5265149 10.5902995,19.7563867 C8.03731215,18.1369386 5.87282453,15.9762218 4.25530809,13.4350849 C2.47086529,10.6853354 1.36037022,7.55464524 1.01224763,4.28099285 C0.93607226,3.4395075 1.21769449,2.60480631 1.78832053,1.98078742 C2.35894657,1.35676854 3.16602964,1.0008955 4.01336457,1.00009938 L7.01871957,1.00014797 C8.53216845,0.985278362 9.82214644,2.09272671 10.0352287,3.59796717 C10.1525835,4.48621119 10.3702217,5.35835133 10.6831428,6.19548792 C11.0973397,7.2954525 10.8324202,8.53546637 10.0007467,9.37501205 L9.2800097,10.0944934 C10.4618416,11.9452871 12.0350838,13.5157876 13.889108,14.6955598 L14.613827,13.972116 C15.45085,13.1458501 16.6930279,12.8813921 17.7926447,13.2940197 C18.6335098,13.6072433 19.507172,13.8245024 20.4059464,13.9428763 C21.9174318,14.1557384 23.0303763,15.4623041 22.9993677,16.9843461 L22.9993595,19.9790532 Z" id="path-1"></path>
    </defs>
    <g id="Index" stroke="none" stroke-width="1" fill="none" fill-rule="evenodd" opacity="0.65">
        <g id="UI-SET" transform="translate(-163.000000, -3164.000000)">
            <g id="Tel-Icon" transform="translate(162.000000, 3163.000000)">
                <rect id="Rectangle-8" x="0" y="0" width="24" height="24"></rect>
                <mask id="mask-2" fill="white">
                    <use xlink:href="#path-1"></use>
                </mask>
                <use id="Shape" fill="#000000" fill-rule="nonzero" xlink:href="#path-1"></use>
            </g>
        </g>
    </g>
</svg>