<svg id="Assortment" xmlns="http://www.w3.org/2000/svg" xmlns:xlink="http://www.w3.org/1999/xlink" width="120" height="120"><defs><style>.cls-7{fill:none}</style><linearGradient id="linear-gradient" x1="566.245" y1="528.997" x2="537.864" y2="509.253" gradientUnits="userSpaceOnUse"><stop offset="0" stop-color="#0884c2"/><stop offset=".088" stop-color="#0884c2" stop-opacity=".77"/><stop offset=".182" stop-color="#0884c2" stop-opacity=".567"/><stop offset=".283" stop-color="#0884c2" stop-opacity=".391"/><stop offset=".389" stop-color="#0884c2" stop-opacity=".248"/><stop offset=".504" stop-color="#0884c2" stop-opacity=".138"/><stop offset=".631" stop-color="#0884c2" stop-opacity=".06"/><stop offset=".779" stop-color="#0884c2" stop-opacity=".014"/><stop offset="1" stop-color="#0884c2" stop-opacity="0"/></linearGradient><linearGradient id="linear-gradient-2" x1="523.67" y1="445.85" x2="526.126" y2="503.974" gradientUnits="userSpaceOnUse"><stop offset="0" stop-color="#0884c2"/><stop offset=".066" stop-color="#0884c2" stop-opacity=".846"/><stop offset=".176" stop-color="#0884c2" stop-opacity=".622"/><stop offset=".291" stop-color="#0884c2" stop-opacity=".43"/><stop offset=".41" stop-color="#0884c2" stop-opacity=".274"/><stop offset=".535" stop-color="#0884c2" stop-opacity=".153"/><stop offset=".667" stop-color="#0884c2" stop-opacity=".067"/><stop offset=".814" stop-color="#0884c2" stop-opacity=".016"/><stop offset="1" stop-color="#0884c2" stop-opacity="0"/></linearGradient><linearGradient id="linear-gradient-3" x1="491.04" y1="545.334" x2="525.02" y2="502.243" xlink:href="#linear-gradient-2"/><linearGradient id="linear-gradient-4" x1="60" y1="83.302" x2="60" y2="145.044" gradientUnits="userSpaceOnUse"><stop offset="0" stop-color="#9fdad9" stop-opacity="0"/><stop offset=".257" stop-color="#aae3e2" stop-opacity=".242"/><stop offset=".849" stop-color="#c5f9f7" stop-opacity=".842"/><stop offset="1" stop-color="#ccfffd"/></linearGradient><linearGradient id="linear-gradient-5" x1="527.997" y1="508.562" x2="537.899" y2="534.854" gradientUnits="userSpaceOnUse"><stop offset="0" stop-color="#07babe"/><stop offset=".391" stop-color="#44ccce"/><stop offset="1" stop-color="#abebea"/></linearGradient><linearGradient id="linear-gradient-6" x1="525.656" y1="504.017" x2="556.908" y2="480.725" xlink:href="#linear-gradient-5"/><linearGradient id="linear-gradient-7" x1="505.723" y1="474.831" x2="501.454" y2="470.424" xlink:href="#linear-gradient-5"/><linearGradient id="linear-gradient-8" x1="516.691" y1="501.902" x2="490.006" y2="497.145" gradientUnits="userSpaceOnUse"><stop offset="0" stop-color="#07babe"/><stop offset=".382" stop-color="#44ced0"/><stop offset="1" stop-color="#aff0ef"/></linearGradient><linearGradient id="linear-gradient-9" x1="69.978" y1="34.492" x2="70.314" y2="31.361" xlink:href="#linear-gradient-5"/><linearGradient id="linear-gradient-10" x1="69.978" y1="34.492" x2="70.314" y2="31.361" gradientUnits="userSpaceOnUse"><stop offset="0" stop-color="#0884c2"/><stop offset=".333" stop-color="#0884c2" stop-opacity=".683"/><stop offset="1" stop-color="#0884c2" stop-opacity="0"/></linearGradient><linearGradient id="linear-gradient-11" x1="526.614" y1="468.223" x2="543.281" y2="468.223" xlink:href="#linear-gradient-5"/><linearGradient id="linear-gradient-12" x1="541.704" y1="471.684" x2="522.121" y2="459.809" gradientUnits="userSpaceOnUse"><stop offset="0" stop-color="#0884c2"/><stop offset=".394" stop-color="#45abd1"/><stop offset="1" stop-color="#abebea"/></linearGradient><linearGradient id="linear-gradient-13" x1="77.161" y1="25.931" x2="57.578" y2="14.056" gradientUnits="userSpaceOnUse"><stop offset="0" stop-color="#fff"/><stop offset="1" stop-color="#fff"/></linearGradient><linearGradient id="linear-gradient-14" x1="32.353" y1="61.389" x2="32.689" y2="58.258" xlink:href="#linear-gradient-5"/><linearGradient id="linear-gradient-15" x1="32.353" y1="61.389" x2="32.689" y2="58.258" xlink:href="#linear-gradient-10"/><linearGradient id="linear-gradient-16" x1="488.989" y1="495.12" x2="505.656" y2="495.12" xlink:href="#linear-gradient-5"/><linearGradient id="linear-gradient-17" x1="504.079" y1="498.581" x2="484.496" y2="486.706" xlink:href="#linear-gradient-12"/><linearGradient id="linear-gradient-18" x1="39.536" y1="52.827" x2="19.952" y2="40.952" xlink:href="#linear-gradient-13"/><linearGradient id="linear-gradient-19" x1="89.59" y1="57.927" x2="89.926" y2="54.796" xlink:href="#linear-gradient-5"/><linearGradient id="linear-gradient-20" x1="89.59" y1="57.927" x2="89.926" y2="54.796" xlink:href="#linear-gradient-10"/><linearGradient id="linear-gradient-21" x1="546.227" y1="491.658" x2="562.893" y2="491.658" xlink:href="#linear-gradient-5"/><linearGradient id="linear-gradient-22" x1="561.317" y1="495.119" x2="541.733" y2="483.244" xlink:href="#linear-gradient-12"/><linearGradient id="linear-gradient-23" x1="96.773" y1="49.366" x2="77.19" y2="37.491" xlink:href="#linear-gradient-13"/></defs><path d="M526 461a40 40 0 1 0 40 40 40.046 40.046 0 0 0-40-40z" transform="translate(-465 -445)" fill="url(#linear-gradient)"/><path d="M526 461a40 40 0 1 0 40 40 40.046 40.046 0 0 0-40-40z" transform="translate(-465 -445)" fill="url(#linear-gradient-2)"/><path d="M526 461a40 40 0 1 0 40 40 40.046 40.046 0 0 0-40-40z" transform="translate(-465 -445)" fill="url(#linear-gradient-3)"/><circle cx="60" cy="60" r="60" fill="url(#linear-gradient-4)"/><path d="M541.082 536.49c-1.546 0-2.725-1.09-3.234-2.99-.322-1.2-3.173-3.553-8.624-3.553a4.25 4.25 0 0 1-4.224-4.362v-3.333a1.158 1.158 0 0 0-1.168-1.03c-2.687 0-4.491-1.506-4.491-4.156a3.047 3.047 0 0 1 3.202-3.066h4.362a3.828 3.828 0 0 0 2.491-1.064 6.396 6.396 0 0 1 4.113-1.425c2.59 0 3.502.729 4.424 1.749a5.246 5.246 0 0 0 .625.597 5.576 5.576 0 0 0 .868.41c1.722.736 4.928 2.103 4.928 6.962a7.969 7.969 0 0 1-.52 2.687 7.924 7.924 0 0 0-.51 2.76 8.558 8.558 0 0 0 .468 2.952 10.81 10.81 0 0 1 .562 3.59 3.275 3.275 0 0 1-3.272 3.272z" transform="translate(-465 -445)" fill="url(#linear-gradient-5)"/><path d="M562.314 484.92a47.033 47.033 0 0 0-19.28-21.72c-.377-.221-.753-.443-1.137-.654a1.769 1.769 0 0 0-1.075.426l-.413.404c-.23.222-.453.445-.67.677a5.762 5.762 0 0 0-1.596 4.42 7.02 7.02 0 0 1-7.012 7.012 5.843 5.843 0 1 0 0 11.686c3.078 0 4.377-2.028 5.154-3.24a7.33 7.33 0 0 1 .455-.665 2.421 2.421 0 0 1 1.75-.776 3.057 3.057 0 0 1 2.303.863 2.92 2.92 0 0 1 .039 4.091c-3.69 3-3.874 3.986-3.859 6.372l.001.367a5.85 5.85 0 0 0 5.843 5.844l.747-.007c2.17-.032 4.427-.062 6.55 2.06a10.808 10.808 0 0 1 1.829 2.975c.971 2.026 2.073 4.321 4.898 4.321a4.68 4.68 0 0 0 4.675-4.675 11.645 11.645 0 0 0-1.858-6.716 10.317 10.317 0 0 1-1.648-6.139 5.555 5.555 0 0 1 2.853-4.303 4.893 4.893 0 0 1 .982-.418 2.466 2.466 0 0 0 1.077-.73 46.32 46.32 0 0 0-.608-1.476z" transform="translate(-465 -445)" fill="url(#linear-gradient-6)"/><path class="cls-7" d="M526 461a40 40 0 1 0 40 40 40.046 40.046 0 0 0-40-40z" transform="translate(-465 -445)"/><path d="M499.87 476.935a5.043 5.043 0 0 1-3.608-1.25 1 1 0 0 1-.038-1.377 40.068 40.068 0 0 1 10.273-8.23 1 1 0 0 1 1.402.467c1.014 2.278.03 5.94-2.192 8.162a8.696 8.696 0 0 1-5.838 2.228z" transform="translate(-465 -445)" fill="url(#linear-gradient-7)"/><path d="M491.986 479.415a43.369 43.369 0 0 0-5.3 18.726q-.026.543-.04 1.09c-.009.362 0 .726 0 1.09 0 .634-.014 1.202.014 1.83a5.1 5.1 0 0 1 .027.415.987.987 0 0 0 1.035 1.021c3.18 0 4.363 1.183 4.363 4.363 0 4.212 3.184 4.993 5.51 5.564 1.427.35 2.775.68 3.407 1.598 2.098 3.044 6.243 5.924 8.531 5.924 3.595 0 5.179-2.27 5.443-4.216a5.171 5.171 0 0 0 0-1.382c-.301-2.237-2.196-4.197-5.07-5.241-2.378-.865-3.645-4.394-3.645-6.61 0-4.988 1.58-6.889 3.254-8.902a11.595 11.595 0 0 0 3.287-7.382 6.849 6.849 0 0 0-.555-3.378 7.112 7.112 0 0 0-3.772-3.771 7.126 7.126 0 0 0-5.518 0 10.5 10.5 0 0 0-3.06 2.121c-1.078.977-1.856 1.683-3.45 1.683a2.374 2.374 0 0 1-1.87-1.202 3 3 0 0 1-.4-2.727 1.092 1.092 0 0 0-.569-1.434 1.115 1.115 0 0 0-1.463.546z" transform="translate(-465 -445)" fill="url(#linear-gradient-8)"/><path class="cls-7" d="M526 461a40 40 0 1 0 40 40 40.046 40.046 0 0 0-40-40z" transform="translate(-465 -445)"/><ellipse cx="70.114" cy="33.223" rx="3.5" ry="1" fill="url(#linear-gradient-9)"/><ellipse cx="70.114" cy="33.223" rx="3.5" ry="1" fill="url(#linear-gradient-10)"/><path d="M539.303 474.734a25.944 25.944 0 0 1-2.664 2.435c-.319.254-.615.477-.881.67-.163.117-.281.2-.348.244a.833.833 0 0 1-.925 0 12.439 12.439 0 0 1-.348-.244 23.677 23.677 0 0 1-.88-.67 25.943 25.943 0 0 1-2.664-2.435c-2.477-2.614-3.979-5.368-3.979-8.178a8.333 8.333 0 0 1 16.667 0c0 2.81-1.502 5.564-3.978 8.178z" transform="translate(-465 -445)" fill="url(#linear-gradient-11)"/><path d="M539.303 474.734a25.944 25.944 0 0 1-2.664 2.435c-.319.254-.615.477-.881.67-.163.117-.281.2-.348.244a.833.833 0 0 1-.925 0 12.439 12.439 0 0 1-.348-.244 23.677 23.677 0 0 1-.88-.67 25.943 25.943 0 0 1-2.664-2.435c-2.477-2.614-3.979-5.368-3.979-8.178a8.333 8.333 0 0 1 16.667 0c0 2.81-1.502 5.564-3.978 8.178z" transform="translate(-465 -445)" fill="url(#linear-gradient-12)"/><circle cx="69.948" cy="21.556" r="3.333" fill="url(#linear-gradient-13)"/><ellipse cx="32.489" cy="60.12" rx="3.5" ry="1" fill="url(#linear-gradient-14)"/><ellipse cx="32.489" cy="60.12" rx="3.5" ry="1" fill="url(#linear-gradient-15)"/><path d="M501.677 501.63a25.944 25.944 0 0 1-2.664 2.436 23.69 23.69 0 0 1-.88.67c-.163.117-.282.2-.349.244a.833.833 0 0 1-.924 0 12.427 12.427 0 0 1-.348-.244 23.677 23.677 0 0 1-.88-.67 25.943 25.943 0 0 1-2.665-2.436c-2.476-2.613-3.978-5.367-3.978-8.177a8.333 8.333 0 1 1 16.666 0c0 2.81-1.501 5.564-3.978 8.177z" transform="translate(-465 -445)" fill="url(#linear-gradient-16)"/><path d="M501.677 501.63a25.944 25.944 0 0 1-2.664 2.436 23.69 23.69 0 0 1-.88.67c-.163.117-.282.2-.349.244a.833.833 0 0 1-.924 0 12.427 12.427 0 0 1-.348-.244 23.677 23.677 0 0 1-.88-.67 25.943 25.943 0 0 1-2.665-2.436c-2.476-2.613-3.978-5.367-3.978-8.177a8.333 8.333 0 1 1 16.666 0c0 2.81-1.501 5.564-3.978 8.177z" transform="translate(-465 -445)" fill="url(#linear-gradient-17)"/><circle cx="32.322" cy="48.453" r="3.333" fill="url(#linear-gradient-18)"/><ellipse cx="89.727" cy="56.658" rx="3.5" ry="1" fill="url(#linear-gradient-19)"/><ellipse cx="89.727" cy="56.658" rx="3.5" ry="1" fill="url(#linear-gradient-20)"/><path d="M558.915 498.169a25.944 25.944 0 0 1-2.664 2.435c-.318.254-.614.477-.88.67-.163.117-.282.2-.349.244a.833.833 0 0 1-.924 0 12.439 12.439 0 0 1-.348-.244 23.687 23.687 0 0 1-.881-.67 25.943 25.943 0 0 1-2.664-2.435c-2.476-2.614-3.978-5.368-3.978-8.178a8.333 8.333 0 1 1 16.666 0c0 2.81-1.502 5.564-3.978 8.178z" transform="translate(-465 -445)" fill="url(#linear-gradient-21)"/><path d="M558.915 498.169a25.944 25.944 0 0 1-2.664 2.435c-.318.254-.614.477-.88.67-.163.117-.282.2-.349.244a.833.833 0 0 1-.924 0 12.439 12.439 0 0 1-.348-.244 23.687 23.687 0 0 1-.881-.67 25.943 25.943 0 0 1-2.664-2.435c-2.476-2.614-3.978-5.368-3.978-8.178a8.333 8.333 0 1 1 16.666 0c0 2.81-1.502 5.564-3.978 8.178z" transform="translate(-465 -445)" fill="url(#linear-gradient-22)"/><circle cx="89.56" cy="44.991" r="3.333" fill="url(#linear-gradient-23)"/></svg>