<svg width="360" height="1104" xmlns="http://www.w3.org/2000/svg" xmlns:xlink="http://www.w3.org/1999/xlink"><defs><linearGradient x1="51.679%" y1="-11.451%" x2="54.722%" y2="67.89%" id="a"><stop stop-color="#9FDAD9" offset="0%"/><stop stop-color="#0092C5" stop-opacity=".014" offset="19.29%"/><stop stop-color="#0076B1" stop-opacity="0" offset="100%"/></linearGradient><linearGradient x1="51.291%" y1="1.156%" x2="51.291%" y2="96.532%" id="b"><stop stop-color="#00AED9" stop-opacity=".17" offset="0%"/><stop stop-color="#0092C5" stop-opacity=".014" offset="50.289%"/><stop stop-color="#0076B1" stop-opacity="0" offset="100%"/></linearGradient><linearGradient x1="52.907%" y1="2.838%" x2="49.674%" y2="95.42%" id="c"><stop stop-color="#00AED9" stop-opacity=".17" offset="0%"/><stop stop-color="#0092C5" stop-opacity=".014" offset="50.289%"/><stop stop-color="#0076B1" stop-opacity="0" offset="100%"/></linearGradient><linearGradient x1="49.055%" y1="2.233%" x2="53.889%" y2="96.801%" id="d"><stop stop-color="#00AED9" stop-opacity=".217" offset="0%"/><stop stop-color="#0092C5" stop-opacity=".014" offset="61.543%"/><stop stop-color="#0076B1" stop-opacity="0" offset="100%"/></linearGradient><path d="M394.417 1022.254a956.227 956.227 0 0 1-73.265 3.44c-18.733.16-37.48-.194-56.242-1.064-88.303-9.234-176.607-40.67-264.91-94.308V794.61c29.81-7.559 71.108-11.219 128.237-11.707 208.586-1.782 126.744-184.865 322.819-190.427C612.355 587.9 576.735 447.39 640 397v533.322c-81.861 49.725-163.722 80.369-245.583 91.932z" id="e"/></defs><g transform="translate(-280 -43)" fill="none" fill-rule="evenodd"><path d="M280 54.514C340 18.171 400 0 460 0s120 18.171 180 54.514v1091.543H280V54.514z" fill="url(#a)" opacity=".341" transform="rotate(-180 460 573.029)"/><path d="M280 45C340 15 400 0 460 0s120 14.667 180 44v1078H280V45z" fill="url(#b)" transform="rotate(-180 460 561)"/><path d="M.283 753.14c25.585-2.283 56.876-2.675 95.197-1.337 208.556 7.283 138.29-178.461 334.581-175.483C597.697 578.862 563.274 426.404 640 385v537.35c-106.667 52.42-213.333 78.629-320 78.629S106.667 974.769 0 922.35l.283-169.21z" fill="url(#c)"/><use fill="url(#d)" xlink:href="#e"/></g></svg>