<svg viewBox="0 0 1400 1408" xmlns="http://www.w3.org/2000/svg" xmlns:xlink="http://www.w3.org/1999/xlink"><defs><linearGradient x1="51.679%" y1="-11.451%" x2="51.291%" y2="103.939%" id="a"><stop stop-color="#9FDAD9" offset="0%"/><stop stop-color="#0092C5" stop-opacity=".014" offset="15.108%"/><stop stop-color="#0076B1" stop-opacity="0" offset="100%"/></linearGradient><linearGradient x1="51.291%" y1="1.156%" x2="51.291%" y2="96.532%" id="b"><stop stop-color="#00AED9" stop-opacity=".17" offset="0%"/><stop stop-color="#0092C5" stop-opacity=".014" offset="50.289%"/><stop stop-color="#0076B1" stop-opacity="0" offset="100%"/></linearGradient><linearGradient x1="52.907%" y1="2.838%" x2="49.674%" y2="95.42%" id="c"><stop stop-color="#00AED9" stop-opacity=".17" offset="0%"/><stop stop-color="#0092C5" stop-opacity=".014" offset="50.289%"/><stop stop-color="#0076B1" stop-opacity="0" offset="100%"/></linearGradient><linearGradient x1="49.055%" y1="2.233%" x2="53.889%" y2="96.801%" id="d"><stop stop-color="#00AED9" stop-opacity=".217" offset="0%"/><stop stop-color="#0092C5" stop-opacity=".014" offset="61.543%"/><stop stop-color="#0076B1" stop-opacity="0" offset="100%"/></linearGradient><path d="M862.787 1400.394a2091.742 2091.742 0 0 1-160.268 7.524 2242.86 2242.86 0 0 1-123.029-2.328c-193.163-20.2-386.327-88.966-579.49-206.299V902.422c65.208-16.535 155.55-24.542 280.518-25.61 456.282-3.898 277.253-404.391 706.167-416.56C1339.527 450.243 1261.608 142.878 1400 32.65v1166.64c-179.071 108.773-358.142 175.807-537.213 201.103z" id="e"/></defs><g fill="none" fill-rule="evenodd"><path d="M0 212C233.333 70.667 466.667 0 700 0c233.333 0 466.667 70.667 700 212v1196H0V212z" fill="url(#a)" opacity=".341" transform="rotate(-180 700 704)"/><path d="M0 172C233.333 57.333 466.667 0 700 0c233.333 0 466.667 57.333 700 172l-2 1196H1.794L0 172z" fill="url(#b)" transform="rotate(-180 700 684)"/><path d="M.619 825.853c55.966-4.996 124.416-5.853 208.244-2.926 456.216 15.932 302.509-390.383 731.895-383.87C1307.461 444.62 1232.162 111.572 1400 21v1175c-233.333 114.667-466.667 172-700 172-233.333 0-466.667-57.333-700-172l.619-370.147z" fill="url(#c)"/><use fill="url(#d)" xlink:href="#e"/></g></svg>