<svg id="Innovation" xmlns="http://www.w3.org/2000/svg" xmlns:xlink="http://www.w3.org/1999/xlink" width="120" height="120"><defs><style>.cls-2{fill:#fff}</style><linearGradient id="linear-gradient" x1="60" y1="33.578" x2="60" y2="-19.74" gradientUnits="userSpaceOnUse"><stop offset="0" stop-color="#9fdad9" stop-opacity="0"/><stop offset=".257" stop-color="#aae3e2" stop-opacity=".242"/><stop offset=".849" stop-color="#c5f9f7" stop-opacity=".842"/><stop offset="1" stop-color="#ccfffd"/></linearGradient><linearGradient id="linear-gradient-2" x1="60" y1="77.177" x2="60" y2="114.14" gradientUnits="userSpaceOnUse"><stop offset=".189" stop-color="#0884c2" stop-opacity="0"/><stop offset=".335" stop-color="#0884c2" stop-opacity=".267"/><stop offset=".497" stop-color="#0884c2" stop-opacity=".527"/><stop offset=".65" stop-color="#0884c2" stop-opacity=".732"/><stop offset=".79" stop-color="#0884c2" stop-opacity=".879"/><stop offset=".911" stop-color="#0884c2" stop-opacity=".968"/><stop offset="1" stop-color="#0884c2"/></linearGradient><linearGradient id="linear-gradient-3" x1="795.926" y1="539.989" x2="796.24" y2="552.869" gradientUnits="userSpaceOnUse"><stop offset="0" stop-color="#9fdad9" stop-opacity="0"/><stop offset=".002" stop-color="#9fdad9" stop-opacity=".009"/><stop offset=".063" stop-color="#9fdad9" stop-opacity=".216"/><stop offset=".127" stop-color="#9fdad9" stop-opacity=".399"/><stop offset=".198" stop-color="#9fdad9" stop-opacity=".562"/><stop offset=".274" stop-color="#9fdad9" stop-opacity=".698"/><stop offset=".358" stop-color="#9fdad9" stop-opacity=".809"/><stop offset=".453" stop-color="#9fdad9" stop-opacity=".895"/><stop offset=".564" stop-color="#9fdad9" stop-opacity=".955"/><stop offset=".707" stop-color="#9fdad9" stop-opacity=".99"/><stop offset="1" stop-color="#9fdad9"/></linearGradient><linearGradient id="linear-gradient-4" x1="814.04" y1="538.76" x2="813.851" y2="558.977" gradientUnits="userSpaceOnUse"><stop offset="0" stop-color="#9fdad9" stop-opacity="0"/><stop offset=".016" stop-color="#9fdad9" stop-opacity=".072"/><stop offset=".067" stop-color="#9fdad9" stop-opacity=".285"/><stop offset=".121" stop-color="#9fdad9" stop-opacity=".473"/><stop offset=".178" stop-color="#9fdad9" stop-opacity=".632"/><stop offset=".238" stop-color="#9fdad9" stop-opacity=".761"/><stop offset=".302" stop-color="#9fdad9" stop-opacity=".86"/><stop offset=".373" stop-color="#9fdad9" stop-opacity=".931"/><stop offset=".454" stop-color="#9fdad9" stop-opacity=".973"/><stop offset=".573" stop-color="#9fdad9" stop-opacity=".985"/><stop offset=".615" stop-color="#9fdad9" stop-opacity=".991"/><stop offset="1" stop-color="#9fdad9"/></linearGradient><linearGradient id="linear-gradient-5" x1="805" y1="547.151" x2="805" y2="561.177" gradientUnits="userSpaceOnUse"><stop offset=".289" stop-color="#0884c2" stop-opacity="0"/><stop offset=".418" stop-color="#0884c2" stop-opacity=".267"/><stop offset=".56" stop-color="#0884c2" stop-opacity=".527"/><stop offset=".694" stop-color="#0884c2" stop-opacity=".732"/><stop offset=".816" stop-color="#0884c2" stop-opacity=".879"/><stop offset=".922" stop-color="#0884c2" stop-opacity=".968"/><stop offset="1" stop-color="#0884c2"/></linearGradient><linearGradient id="linear-gradient-6" x1="41.901" y1="46.768" x2="51.146" y2="32.739" gradientUnits="userSpaceOnUse"><stop offset="0" stop-color="#aff0ef"/><stop offset=".285" stop-color="#83e2e2"/><stop offset=".927" stop-color="#14bec2"/><stop offset="1" stop-color="#07babe"/></linearGradient><linearGradient id="linear-gradient-7" x1="37.279" y1="28.852" x2="42.924" y2="20.286" gradientUnits="userSpaceOnUse"><stop offset="0" stop-color="#adedec"/><stop offset=".288" stop-color="#81dfe0"/><stop offset=".937" stop-color="#12bdc1"/><stop offset="1" stop-color="#07babe"/></linearGradient><linearGradient id="linear-gradient-8" x1="83.66" y1="35.407" x2="93.411" y2="35.407" xlink:href="#linear-gradient-7"/><linearGradient id="linear-gradient-9" x1="47.114" y1="85.443" x2="52" y2="85.443" xlink:href="#linear-gradient-7"/><linearGradient id="linear-gradient-10" x1="43.406" y1="80.92" x2="51.735" y2="87.044" gradientUnits="userSpaceOnUse"><stop offset="0" stop-color="#07babe" stop-opacity="0"/><stop offset=".254" stop-color="#07babe" stop-opacity=".233"/><stop offset=".825" stop-color="#07babe" stop-opacity=".815"/><stop offset="1" stop-color="#07babe"/></linearGradient><linearGradient id="linear-gradient-11" x1="818.111" y1="472.628" x2="807.524" y2="517.396" xlink:href="#linear-gradient-7"/><linearGradient id="linear-gradient-12" x1="69.764" y1="39.713" x2="65.902" y2="56.336" gradientUnits="userSpaceOnUse"><stop offset="0" stop-color="#07babe" stop-opacity="0"/><stop offset=".249" stop-color="#07aebf" stop-opacity=".228"/><stop offset=".809" stop-color="#088fc1" stop-opacity=".798"/><stop offset="1" stop-color="#0884c2"/></linearGradient><linearGradient id="linear-gradient-13" x1="89.633" y1="50.027" x2="98.215" y2="49.93" xlink:href="#linear-gradient-12"/><linearGradient id="linear-gradient-14" x1="818.907" y1="464.416" x2="815.267" y2="479.036" xlink:href="#linear-gradient-7"/><linearGradient id="linear-gradient-15" x1="72.048" y1="19.972" x2="59.351" y2="15.011" xlink:href="#linear-gradient-12"/><linearGradient id="linear-gradient-16" x1="54.112" y1="22.121" x2="48.44" y2="13.74" xlink:href="#linear-gradient-12"/><linearGradient id="linear-gradient-17" x1="74.431" y1="21.702" x2="87.243" y2="26.988" xlink:href="#linear-gradient-12"/><linearGradient id="linear-gradient-18" x1="769.121" y1="512.679" x2="787.324" y2="485.057" gradientUnits="userSpaceOnUse"><stop offset="0" stop-color="#abebea"/><stop offset=".291" stop-color="#7fdede"/><stop offset=".948" stop-color="#10bdc0"/><stop offset="1" stop-color="#07babe"/></linearGradient><linearGradient id="linear-gradient-19" x1="29.105" y1="54.314" x2="26.014" y2="45.042" xlink:href="#linear-gradient-12"/><linearGradient id="linear-gradient-20" x1="31.721" y1="61.741" x2="34.864" y2="69.752" xlink:href="#linear-gradient-12"/><linearGradient id="linear-gradient-21" x1="792.163" y1="502.023" x2="798.262" y2="523.804" gradientUnits="userSpaceOnUse"><stop offset=".005" stop-color="#aff0ef"/><stop offset=".288" stop-color="#83e2e2"/><stop offset=".927" stop-color="#14bec2"/><stop offset="1" stop-color="#07babe"/></linearGradient><linearGradient id="linear-gradient-22" x1="48.785" y1="65.258" x2="61.285" y2="50.258" xlink:href="#linear-gradient-12"/><linearGradient id="linear-gradient-23" x1="43.586" y1="72.819" x2="37.844" y2="79.883" xlink:href="#linear-gradient-12"/><linearGradient id="linear-gradient-24" x1="777.165" y1="493.353" x2="782.471" y2="485.206" xlink:href="#linear-gradient-18"/><linearGradient id="linear-gradient-25" x1="37.661" y1="48.317" x2="43.521" y2="55.037" xlink:href="#linear-gradient-12"/><linearGradient id="linear-gradient-26" x1="31.105" y1="40.314" x2="28.014" y2="31.042" xlink:href="#linear-gradient-12"/><linearGradient id="linear-gradient-27" x1="825.991" y1="505.06" x2="832.562" y2="527.908" gradientUnits="userSpaceOnUse"><stop offset=".005" stop-color="#b1f2f1"/><stop offset=".285" stop-color="#85e3e4"/><stop offset=".917" stop-color="#16bfc3"/><stop offset="1" stop-color="#07babe"/></linearGradient><linearGradient id="linear-gradient-28" x1="86.498" y1="64" x2="93.558" y2="64" xlink:href="#linear-gradient-12"/><linearGradient id="linear-gradient-29" x1="78.242" y1="72.574" x2="80.349" y2="79.317" xlink:href="#linear-gradient-12"/><linearGradient id="linear-gradient-30" x1="78.459" y1="64.881" x2="72.088" y2="59.966" xlink:href="#linear-gradient-12"/><linearGradient id="linear-gradient-31" x1="813.922" y1="519.696" x2="805.35" y2="531.317" gradientUnits="userSpaceOnUse"><stop offset="0" stop-color="#aef0ee"/><stop offset=".286" stop-color="#82e2e1"/><stop offset=".932" stop-color="#13bec1"/><stop offset="1" stop-color="#07babe"/></linearGradient><linearGradient id="linear-gradient-32" x1="63.036" y1="76.56" x2="54.067" y2="68.997" xlink:href="#linear-gradient-12"/><linearGradient id="linear-gradient-33" x1="69.806" y1="83.16" x2="77.891" y2="89.942" xlink:href="#linear-gradient-12"/></defs><circle cx="60" cy="60" r="60" fill="url(#linear-gradient)"/><rect class="cls-2" x="46" y="93" width="28" height="14" rx="4" ry="4"/><rect x="46" y="93" width="28" height="14" rx="4" ry="4" fill="url(#linear-gradient-2)"/><path d="M797 548v-6a4 4 0 0 1 4-4h-6a4 4 0 0 0-4 4v6a4 4 0 0 0 4 4h6a4 4 0 0 1-4-4z" transform="translate(-745 -445)" fill="url(#linear-gradient-3)"/><path d="M813 548v-6a4 4 0 0 0-4-4h6a4 4 0 0 1 4 4v6a4 4 0 0 1-4 4h-6a4 4 0 0 0 4-4z" transform="translate(-745 -445)" fill="url(#linear-gradient-4)"/><path class="cls-2" d="M816 554a5 5 0 0 1-5 5h-12a5 5 0 0 1-5-5h22z" transform="translate(-745 -445)"/><path d="M816 554a5 5 0 0 1-5 5h-12a5 5 0 0 1-5-5h22z" transform="translate(-745 -445)" fill="url(#linear-gradient-5)"/><circle class="cls-2" cx="47.542" cy="38.208" r="7.125"/><circle cx="47.542" cy="38.208" r="7.125" fill="url(#linear-gradient-6)"/><circle class="cls-2" cx="39.625" cy="25.292" r="4.875"/><circle cx="39.625" cy="25.292" r="4.875" fill="url(#linear-gradient-7)"/><circle cx="88.536" cy="35.407" r="4.876" fill="url(#linear-gradient-8)"/><circle cx="49.557" cy="85.443" r="2.443" fill="url(#linear-gradient-9)"/><circle cx="49.557" cy="85.443" r="2.443" fill="url(#linear-gradient-10)"/><path class="cls-2" d="M823.714 485.54c-1.134-4.412-5-7.842-9.714-7.54a10.72 10.72 0 0 1-9.924-5.052A13.352 13.352 0 0 1 802 464a4.88 4.88 0 0 0-5-5 5 5 0 0 0-5 5 5.255 5.255 0 0 0 3.747 4.832 16.977 16.977 0 0 1 6.675 5.175c1.747 2.339 2.39 8.43 1.89 11.055a14.21 14.21 0 0 0-.312 3.188 10.071 10.071 0 0 0 9.812 9.75 9.76 9.76 0 0 0 7.103-2.797 8.685 8.685 0 0 1 5.346-2.07 8.476 8.476 0 0 1 7.086 3.829A4.294 4.294 0 0 0 837 499a4 4 0 0 0 0-8 4.826 4.826 0 0 0-1.912.405 8.467 8.467 0 0 1-3.328.68 8.253 8.253 0 0 1-8.046-6.546z" transform="translate(-745 -445)"/><path d="M823.714 485.54c-1.134-4.412-5-7.842-9.714-7.54a10.72 10.72 0 0 1-9.924-5.052A13.352 13.352 0 0 1 802 464a4.88 4.88 0 0 0-5-5 5 5 0 0 0-5 5 5.255 5.255 0 0 0 3.747 4.832 16.977 16.977 0 0 1 6.675 5.175c1.747 2.339 2.39 8.43 1.89 11.055a14.21 14.21 0 0 0-.312 3.188 10.071 10.071 0 0 0 9.812 9.75 9.76 9.76 0 0 0 7.103-2.797 8.685 8.685 0 0 1 5.346-2.07 8.476 8.476 0 0 1 7.086 3.829A4.294 4.294 0 0 0 837 499a4 4 0 0 0 0-8 4.826 4.826 0 0 0-1.912.405 8.467 8.467 0 0 1-3.328.68 8.253 8.253 0 0 1-8.046-6.546z" transform="translate(-745 -445)" fill="url(#linear-gradient-11)"/><circle cx="69" cy="43" r="10" fill="url(#linear-gradient-12)"/><circle cx="92" cy="50" r="4" fill="url(#linear-gradient-13)"/><path d="M825 464c-2.73 0-2.796 1.625-4.694 1.625A3.293 3.293 0 0 1 817 463a5 5 0 0 0-5-5 4.385 4.385 0 0 0-1.879.372c-.108.044-.207.102-.312.154-.074.039-.148.077-.22.119a4.968 4.968 0 0 0-2.526 3.726 4.806 4.806 0 0 0-.051.51c-.001.041-.012.079-.012.119 0 .013.004.024.004.037 0 .023-.004.046-.004.07a4.872 4.872 0 0 0 3.967 4.783A5.012 5.012 0 0 0 812 468a4.831 4.831 0 0 0 1.281-.172c1.752-.481 1.483-1.21 3.194-1.21a3.684 3.684 0 0 1 3.413 2.302c.404 1 .1 2.164 1.658 3.68a4.866 4.866 0 0 0 3.39 1.4c.01 0 .02-.003.031-.003L825 474a5 5 0 0 0 0-10z" transform="translate(-745 -445)" fill="url(#linear-gradient-14)"/><circle cx="67" cy="18" r="5" fill="url(#linear-gradient-15)"/><circle cx="52" cy="19" r="5" fill="url(#linear-gradient-16)"/><circle cx="80" cy="24" r="5" fill="url(#linear-gradient-17)"/><path class="cls-2" d="M775.902 500.792c0-.385 0-.782.034-1.165.151-1.745 1.064-1.738 1.064-3.627a4 4 0 0 0-8 0 3.857 3.857 0 0 0 1.837 3.343 9.34 9.34 0 0 1 2.035 1.386 6.472 6.472 0 0 1 2.156 4.568 7.316 7.316 0 0 1-.21 2.073c-.297 1-.714 1.088-.818 2.63a3.91 3.91 0 0 0 4 4 3.989 3.989 0 0 0 1.677-7.614c-2.268-1.094-3.775-2.681-3.775-5.594z" transform="translate(-745 -445)"/><path d="M775.902 500.792c0-.385 0-.782.034-1.165.151-1.745 1.064-1.738 1.064-3.627a4 4 0 0 0-8 0 3.857 3.857 0 0 0 1.837 3.343 9.34 9.34 0 0 1 2.035 1.386 6.472 6.472 0 0 1 2.156 4.568 7.316 7.316 0 0 1-.21 2.073c-.297 1-.714 1.088-.818 2.63a3.91 3.91 0 0 0 4 4 3.989 3.989 0 0 0 1.677-7.614c-2.268-1.094-3.775-2.681-3.775-5.594z" transform="translate(-745 -445)" fill="url(#linear-gradient-18)"/><circle cx="28" cy="51" r="4" fill="url(#linear-gradient-19)"/><circle cx="33" cy="65" r="4" fill="url(#linear-gradient-20)"/><path class="cls-2" d="M799 496a8 8 0 0 0-8 8 7.858 7.858 0 0 0 .166 1.604c1.07 5.135.59 9.382-5.345 12.284-.104.05-.518.203-.64.238a2.995 2.995 0 1 0 3.78 3.362c.004-.025.032-.554.104-1.046 1.393-9.542 10.623-8.406 11.623-8.62A8 8 0 0 0 799 496z" transform="translate(-745 -445)"/><path d="M799 496a8 8 0 0 0-8 8 7.858 7.858 0 0 0 .166 1.604c1.07 5.135.59 9.382-5.345 12.284-.104.05-.518.203-.64.238a2.995 2.995 0 1 0 3.78 3.362c.004-.025.032-.554.104-1.046 1.393-9.542 10.623-8.406 11.623-8.62A8 8 0 0 0 799 496z" transform="translate(-745 -445)" fill="url(#linear-gradient-21)"/><circle cx="54" cy="59" r="8" fill="url(#linear-gradient-22)"/><circle cx="41" cy="76" r="3" fill="url(#linear-gradient-23)"/><path d="M775.53 486.327a7.048 7.048 0 0 1 .68.318 8.985 8.985 0 0 1 4.853 7.98c0 .389-.063 1.13-.063 1.375a4 4 0 1 0 4.686-3.93 8.994 8.994 0 0 1-6.812-8.72c0-.637.126-.727.126-1.35a4 4 0 1 0-5.071 3.855 11.327 11.327 0 0 1 1.602.472z" transform="translate(-745 -445)" fill="url(#linear-gradient-24)"/><circle cx="40" cy="51" r="4" fill="url(#linear-gradient-25)"/><circle cx="30" cy="37" r="4" fill="url(#linear-gradient-26)"/><path d="M834 506a2.952 2.952 0 0 0-1.533.428 7.114 7.114 0 0 1-1.345.808 5.892 5.892 0 0 1-2.349.477 6.06 6.06 0 0 1-4.814-2.392 3.99 3.99 0 1 0-4.542 6.333 4.972 4.972 0 0 1 2.66 4.41 4.722 4.722 0 0 1-.567 2.271A2.967 2.967 0 0 0 821 520a3 3 0 1 0 4.48-2.597 1.543 1.543 0 0 1-.397-.262 4.984 4.984 0 0 1-1.87-3.89c0-2.415 1.898-4.251 4.787-4.251 1.684 0 2.593.779 3.686 1.888A2.994 2.994 0 1 0 834 506z" transform="translate(-745 -445)" fill="url(#linear-gradient-27)"/><circle cx="89" cy="64" r="3" fill="url(#linear-gradient-28)"/><circle cx="79" cy="75" r="3" fill="url(#linear-gradient-29)"/><circle cx="76.021" cy="63" r="4" fill="url(#linear-gradient-30)"/><path d="M808.958 518.43a3.88 3.88 0 0 0-1.315-2.444 4.004 4.004 0 1 0-3.174 6.978c.044.006.216.015.444.032s.51.042.777.08a10.103 10.103 0 0 1 8.361 7.43 3.007 3.007 0 0 0 1.009 1.778 2.998 2.998 0 0 0 4.412-3.984 3.01 3.01 0 0 0-1.355-1.085c-1-.402-3.576-.081-6.502-3.16a10.062 10.062 0 0 1-2.485-4.546 5.84 5.84 0 0 1-.111-.587c-.025-.177-.041-.338-.06-.493z" transform="translate(-745 -445)" fill="url(#linear-gradient-31)"/><circle cx="60" cy="74" r="4" fill="url(#linear-gradient-32)"/><circle cx="72" cy="85" r="3" fill="url(#linear-gradient-33)"/></svg>