<svg width="20" height="24" xmlns="http://www.w3.org/2000/svg" xmlns:xlink="http://www.w3.org/1999/xlink"><defs><path d="M16.226 20.813a31.132 31.132 0 0 1-4.254 3.726c-.195.141-.337.24-.417.293a1 1 0 0 1-1.11 0 16.31 16.31 0 0 1-.417-.293 31.132 31.132 0 0 1-4.254-3.726C2.802 17.676 1 14.372 1 11 1 5.477 5.477 1 11 1s10 4.477 10 10c0 3.372-1.802 6.676-4.774 9.813zm-4.443 1.578a29.28 29.28 0 0 0 2.991-2.765C17.427 16.793 19 13.877 19 11.092 19 6.622 15.418 3 11 3s-8 3.623-8 8.092c0 2.785 1.573 5.701 4.226 8.534A29.28 29.28 0 0 0 11 23c.242-.181.505-.384.783-.609zM11 15a4 4 0 1 1 0-8 4 4 0 0 1 0 8zm0-2a2 2 0 1 0 0-4 2 2 0 0 0 0 4z" id="a"/></defs><g transform="translate(-1 -1)" fill="none" fill-rule="evenodd" opacity=".65"><path d="M0 0h24v24H0z"/><use fill="#000" fill-rule="nonzero" xlink:href="#a"/></g></svg>