<svg width="82" height="83" xmlns="http://www.w3.org/2000/svg" xmlns:xlink="http://www.w3.org/1999/xlink"><defs><circle id="b" cx="32" cy="32" r="32"/><filter x="-28.9%" y="-14.8%" width="157.8%" height="159.4%" filterUnits="objectBoundingBox" id="a"><feOffset dy="10" in="SourceAlpha" result="shadowOffsetOuter1"/><feGaussianBlur stdDeviation="4.5" in="shadowOffsetOuter1" result="shadowBlurOuter1"/><feColorMatrix values="0 0 0 0 0 0 0 0 0 0 0 0 0 0 0 0 0 0 0.289855072 0" in="shadowBlurOuter1"/></filter><linearGradient x1="0%" y1="49.926%" x2="98.797%" y2="49.926%" id="c"><stop stop-color="#07BABE" offset="0%"/><stop stop-color="#047F96" offset="25%"/><stop stop-color="#055085" offset="49.289%"/><stop stop-color="#0763A6" offset="100%"/></linearGradient><linearGradient x1="0%" y1="49.926%" y2="49.926%" id="d"><stop stop-color="#07BABE" offset="0%"/><stop stop-color="#0884C2" offset="49.133%"/><stop stop-color="#0884C2" offset="97.688%"/></linearGradient></defs><g fill="none" fill-rule="evenodd"><g transform="translate(9)"><use fill="#000" filter="url(#a)" xlink:href="#b"/><use fill="#FFF" xlink:href="#b"/></g><g fill-rule="nonzero"><path fill="#9FDAD9" d="M35 15l6 12 6-12z"/><path d="M27.5 15c-.2 0-.4.1-.5.3-.1.2 0 .4.2.6L41 27l-6-12h-7.5z" fill="#07BABE"/><path d="M55 15.3c-.1-.2-.3-.3-.5-.3H47l-6 12 13.8-11.1c.2-.2.2-.4.2-.6z" fill="#0884C2"/></g><g fill-rule="nonzero"><path d="M19 14L.6.5C.5.4.3.4.2.5.1.5 0 .6 0 .8V22c0 .6.4 1 1 1h36c.6 0 1-.4 1-1V1c0-.2-.1-.4-.3-.4-.2 0-.4-.1-.5 0L19 14z" fill="url(#c)" transform="translate(22 24)"/><path d="M19 14L.6.5C.5.4.3.4.2.5.1.5 0 .6 0 .8V22c0 .6.4 1 1 1h36c.6 0 1-.4 1-1V1c0-.2-.1-.4-.3-.4-.2 0-.4-.1-.5 0L19 14z" fill="url(#d)" transform="translate(22 24)"/></g></g></svg>