<svg width="133" height="32" xmlns="http://www.w3.org/2000/svg"><defs><linearGradient x1="0%" y1="49.926%" x2="98.797%" y2="49.926%" id="a"><stop stop-color="#07BABE" offset="0%"/><stop stop-color="#047F96" offset="25%"/><stop stop-color="#055085" offset="49.289%"/><stop stop-color="#0763A6" offset="100%"/></linearGradient><linearGradient x1="0%" y1="49.926%" y2="49.926%" id="b"><stop stop-color="#07BABE" offset="0%"/><stop stop-color="#0884C2" offset="49.133%"/><stop stop-color="#0884C2" offset="97.688%"/></linearGradient></defs><g fill="none" fill-rule="evenodd"><path d="M-8-8h149v48H-8z"/><g fill-rule="nonzero"><path fill="#9FDAD9" d="M13 0l6 12 6-12z"/><path d="M5.5 0c-.2 0-.4.1-.5.3-.1.2 0 .4.2.6L19 12 13 0H5.5z" fill="#07BABE"/><path d="M33 .3c-.1-.2-.3-.3-.5-.3H25l-6 12L32.8.9c.2-.2.2-.4.2-.6z" fill="#0884C2"/><path d="M19 14L.6.5C.5.4.3.4.2.5.1.5 0 .6 0 .8V22c0 .6.4 1 1 1h36c.6 0 1-.4 1-1V1c0-.2-.1-.4-.3-.4-.2 0-.4-.1-.5 0L19 14z" fill="url(#a)" transform="translate(0 9)"/><path d="M19 14L.6.5C.5.4.3.4.2.5.1.5 0 .6 0 .8V22c0 .6.4 1 1 1h36c.6 0 1-.4 1-1V1c0-.2-.1-.4-.3-.4-.2 0-.4-.1-.5 0L19 14z" fill="url(#b)" transform="translate(0 9)"/></g><path d="M99 24h-3V12h-3.5c-.3 0-.5-.2-.5-.5v-2c0-.3.2-.5.5-.5h10c.3 0 .5.2.5.5v2c0 .3-.2.5-.5.5H99v12zm-21.5 0c-.3 0-.5-.2-.5-.5v-2c0-.3.2-.5.5-.5H79l4.4-11.7c.1-.2.3-.3.5-.3h1.3c.2 0 .4.1.5.3L90 21h1.5c.3 0 .5.2.5.5v2c0 .3-.2.5-.5.5h-14zm4.5-3h5l-2.5-7-2.5 7zm-8.5-6c.3 0 .5.2.5.5v2c0 .3-.2.5-.5.5H68v3h6.5c.3 0 .5.2.5.5v2c0 .3-.2.5-.5.5h-9c-.3 0-.5-.2-.5-.5v-14c0-.3.2-.5.5-.5h9c.3 0 .5.2.5.5v2c0 .3-.2.5-.5.5H68v3h5.5zm-14 9c-.3 0-.5-.2-.5-.5V15l-4.1 4.6c-.1.1-.2.2-.4.2s-.3-.1-.4-.2L50 15v8.5c0 .3-.2.5-.5.5h-2c-.3 0-.5-.2-.5-.5v-14c0-.3.2-.5.5-.5h1.3c.2 0 .3.1.4.2l5.3 6.8 5.3-6.8c.1-.1.2-.2.4-.2h1.3c.3 0 .5.2.5.5v14c0 .3-.2.5-.5.5h-2zm67.7-4.7c-.6-1-1.2-1.3-2.2-1.3h-1v5.5c0 .3-.2.5-.5.5h-2c-.3 0-.5-.2-.5-.5v-14c0-.3.2-.5.5-.5h2c.3 0 .5.2.5.5V15h1c1 0 1.5-.2 2.2-1.2l2.7-4.6c.1-.2.3-.2.4-.2h1.9c.2 0 .3.1.4.2.1.2.1.3 0 .5l-2.7 5c-.8 1.2-1.3 1.6-1.7 1.8.5.2.9.6 1.8 1.9l2.7 4.9c.1.2.1.3 0 .5s-.3.2-.4.2h-1.9c-.2 0-.3-.1-.4-.2l-2.8-4.5zM118 16v1c-.3 3.9-3.5 7-7.5 7-2 0-3.8-.8-5.2-2.1-.1-.1-.2-.2-.2-.4 0-.1.1-.3.2-.4l1.2-1.1c.2-.2.5-.2.7 0 .9.8 2.1 1.2 3.3 1.2 2.1 0 4-1.3 4.5-3.3h-4.5c-.3 0-.5-.2-.5-.5v-2c0-.3.2-.5.5-.5h4.5c-.5-2-2.4-3.3-4.5-3.3-1.3 0-2.4.4-3.3 1.2-.2.2-.5.2-.7 0l-1.2-1.1c-.1-.1-.2-.2-.2-.4s.1-.3.2-.4c1.4-1.3 3.2-2.1 5.2-2.1 4 .2 7.2 3.3 7.5 7.2z" fill="#0884C2" fill-rule="nonzero"/></g></svg>