<svg id="Reputation" xmlns="http://www.w3.org/2000/svg" xmlns:xlink="http://www.w3.org/1999/xlink" width="120" height="120"><defs><style>.cls-8{fill:#fff}</style><linearGradient id="linear-gradient" x1="29" y1="60" x2="-33.365" y2="60" gradientUnits="userSpaceOnUse"><stop offset="0" stop-color="#9fdad9" stop-opacity="0"/><stop offset=".257" stop-color="#aae3e2" stop-opacity=".242"/><stop offset=".849" stop-color="#c5f9f7" stop-opacity=".842"/><stop offset="1" stop-color="#ccfffd"/></linearGradient><linearGradient id="linear-gradient-2" x1="245" y1="489.004" x2="245" y2="465.344" gradientUnits="userSpaceOnUse"><stop offset="0" stop-color="#a9e8e7"/><stop offset="1" stop-color="#07babe"/></linearGradient><linearGradient id="linear-gradient-3" x1="245" y1="465.023" x2="245" y2="448.28" gradientUnits="userSpaceOnUse"><stop offset="0" stop-color="#0884c2" stop-opacity="0"/><stop offset="1" stop-color="#0884c2"/></linearGradient><linearGradient id="linear-gradient-4" x1="245.132" y1="479.523" x2="245.062" y2="494.716" xlink:href="#linear-gradient-3"/><linearGradient id="linear-gradient-5" x1="239.375" y1="502" x2="255.667" y2="502" xlink:href="#linear-gradient-2"/><linearGradient id="linear-gradient-6" x1="236.014" y1="502.019" x2="213.218" y2="501.861" xlink:href="#linear-gradient-3"/><linearGradient id="linear-gradient-7" x1="241.153" y1="502.022" x2="227.225" y2="501.925" gradientTransform="matrix(-1 0 0 1 494.4 0)" xlink:href="#linear-gradient-3"/><linearGradient id="linear-gradient-8" x1="223.299" y1="416.376" x2="230.02" y2="424.658" gradientUnits="userSpaceOnUse"><stop offset="0" stop-color="#a2e6e4"/><stop offset="1" stop-color="#07babe"/></linearGradient><linearGradient id="linear-gradient-9" x1="242.299" y1="404.376" x2="249.02" y2="412.658" xlink:href="#linear-gradient-8"/><linearGradient id="linear-gradient-10" x1="259.299" y1="416.376" x2="266.02" y2="424.658" xlink:href="#linear-gradient-8"/><linearGradient id="linear-gradient-11" x1="241.833" y1="493" x2="251.835" y2="493" gradientUnits="userSpaceOnUse"><stop offset="0" stop-color="#9fdad9"/><stop offset="1" stop-color="#07babe"/></linearGradient><linearGradient id="linear-gradient-12" x1="245.833" y1="493" x2="256.672" y2="493" xlink:href="#linear-gradient-3"/><linearGradient id="linear-gradient-13" x1="205.023" y1="473.807" x2="243.306" y2="474.399" gradientUnits="userSpaceOnUse"><stop offset=".005" stop-color="#0884c2" stop-opacity="0"/><stop offset="1" stop-color="#0884c2"/></linearGradient><linearGradient id="linear-gradient-14" x1="237.586" y1="433.746" x2="256.409" y2="456.939" gradientUnits="userSpaceOnUse"><stop offset="0" stop-color="#89e8e6"/><stop offset="1" stop-color="#07babe"/></linearGradient><linearGradient id="linear-gradient-15" x1="245.009" y1="437.312" x2="245.163" y2="477.669" gradientUnits="userSpaceOnUse"><stop offset="0" stop-color="#0884c2" stop-opacity="0"/><stop offset=".995" stop-color="#0884c2"/></linearGradient><linearGradient id="linear-gradient-16" x1="239.182" y1="465.768" x2="253.572" y2="487.768" gradientUnits="userSpaceOnUse"><stop offset="0" stop-color="#fff" stop-opacity="0"/><stop offset=".487" stop-color="#fff" stop-opacity=".5"/><stop offset="1" stop-color="#fff" stop-opacity="0"/></linearGradient><linearGradient id="linear-gradient-17" x1="223.898" y1="473.807" x2="262.181" y2="474.399" gradientTransform="matrix(-1 0 0 1 509 0)" xlink:href="#linear-gradient-13"/></defs><circle cx="60" cy="60" r="60" fill="url(#linear-gradient)"/><path d="M255 508h-20s7.035-21.837 7-34-5-29-5-29l8 5.356 8-5.356s-4.965 16.837-5 29 7 34 7 34z" transform="translate(-185 -397)" fill="url(#linear-gradient-2)"/><path d="M255 508h-20s7.035-21.837 7-34-5-29-5-29l8 5.356 8-5.356s-4.965 16.837-5 29 7 34 7 34z" transform="translate(-185 -397)" fill="url(#linear-gradient-3)"/><path d="M255 508h-20s7.035-21.837 7-34-5-29-5-29l8 5.356 8-5.356s-4.965 16.837-5 29 7 34 7 34z" transform="translate(-185 -397)" fill="url(#linear-gradient-4)"/><path d="M265 509h-40l2.757-9.648a6 6 0 0 1 5.769-4.352h22.246a6 6 0 0 1 5.65 3.982z" transform="translate(-185 -397)" fill="url(#linear-gradient-5)"/><path d="M241.526 495h-8a6 6 0 0 0-5.77 4.352L225 509h8l2.757-9.648a6 6 0 0 1 5.769-4.352z" transform="translate(-185 -397)" fill="url(#linear-gradient-6)"/><path d="M247.75 495h8a6 6 0 0 1 5.77 4.352L265 509h-8.724l-2.757-9.648A6 6 0 0 0 247.75 495z" transform="translate(-185 -397)" fill="url(#linear-gradient-7)"/><path class="cls-8" d="M228.672 420.855l.48 2.936a.177.177 0 0 1-.067.174.159.159 0 0 1-.179.014l-2.512-1.387a.811.811 0 0 0-.788 0l-2.512 1.387a.159.159 0 0 1-.179-.014.177.177 0 0 1-.067-.174l.48-2.936a.916.916 0 0 0-.244-.787l-2.032-2.08a.18.18 0 0 1-.043-.182.168.168 0 0 1 .136-.12l2.81-.43a.85.85 0 0 0 .637-.485l1.256-2.672a.166.166 0 0 1 .304 0l1.256 2.672a.85.85 0 0 0 .638.486l2.809.428a.168.168 0 0 1 .136.121.18.18 0 0 1-.043.183l-2.032 2.08a.916.916 0 0 0-.244.786zm19-12l.48 2.936a.177.177 0 0 1-.067.174.159.159 0 0 1-.179.014l-2.512-1.387a.811.811 0 0 0-.788 0l-2.512 1.387a.159.159 0 0 1-.179-.014.177.177 0 0 1-.067-.174l.48-2.936a.916.916 0 0 0-.244-.787l-2.032-2.08a.18.18 0 0 1-.043-.182.168.168 0 0 1 .136-.12l2.81-.43a.85.85 0 0 0 .637-.485l1.256-2.672a.166.166 0 0 1 .304 0l1.256 2.672a.85.85 0 0 0 .638.486l2.809.428a.168.168 0 0 1 .136.121.18.18 0 0 1-.043.183l-2.032 2.08a.916.916 0 0 0-.244.786z" transform="translate(-185 -397)"/><path d="M228.672 420.855l.48 2.936a.177.177 0 0 1-.067.174.159.159 0 0 1-.179.014l-2.512-1.387a.811.811 0 0 0-.788 0l-2.512 1.387a.159.159 0 0 1-.179-.014.177.177 0 0 1-.067-.174l.48-2.936a.916.916 0 0 0-.244-.787l-2.032-2.08a.18.18 0 0 1-.043-.182.168.168 0 0 1 .136-.12l2.81-.43a.85.85 0 0 0 .637-.485l1.256-2.672a.166.166 0 0 1 .304 0l1.256 2.672a.85.85 0 0 0 .638.486l2.809.428a.168.168 0 0 1 .136.121.18.18 0 0 1-.043.183l-2.032 2.08a.916.916 0 0 0-.244.786z" transform="translate(-185 -397)" fill="url(#linear-gradient-8)"/><path d="M247.672 408.855l.48 2.936a.177.177 0 0 1-.067.174.159.159 0 0 1-.179.014l-2.512-1.387a.811.811 0 0 0-.788 0l-2.512 1.387a.159.159 0 0 1-.179-.014.177.177 0 0 1-.067-.174l.48-2.936a.916.916 0 0 0-.244-.787l-2.032-2.08a.18.18 0 0 1-.043-.182.168.168 0 0 1 .136-.12l2.81-.43a.85.85 0 0 0 .637-.485l1.256-2.672a.166.166 0 0 1 .304 0l1.256 2.672a.85.85 0 0 0 .638.486l2.809.428a.168.168 0 0 1 .136.121.18.18 0 0 1-.043.183l-2.032 2.08a.916.916 0 0 0-.244.786z" transform="translate(-185 -397)" fill="url(#linear-gradient-9)"/><path class="cls-8" d="M264.672 420.855l.48 2.936a.177.177 0 0 1-.067.174.159.159 0 0 1-.179.014l-2.512-1.387a.811.811 0 0 0-.788 0l-2.512 1.387a.159.159 0 0 1-.179-.014.177.177 0 0 1-.067-.174l.48-2.936a.916.916 0 0 0-.244-.787l-2.032-2.08a.18.18 0 0 1-.043-.182.168.168 0 0 1 .136-.12l2.81-.43a.85.85 0 0 0 .637-.485l1.256-2.672a.166.166 0 0 1 .304 0l1.256 2.672a.85.85 0 0 0 .638.486l2.809.428a.168.168 0 0 1 .136.121.18.18 0 0 1-.043.183l-2.032 2.08a.916.916 0 0 0-.244.786z" transform="translate(-185 -397)"/><path d="M264.672 420.855l.48 2.936a.177.177 0 0 1-.067.174.159.159 0 0 1-.179.014l-2.512-1.387a.811.811 0 0 0-.788 0l-2.512 1.387a.159.159 0 0 1-.179-.014.177.177 0 0 1-.067-.174l.48-2.936a.916.916 0 0 0-.244-.787l-2.032-2.08a.18.18 0 0 1-.043-.182.168.168 0 0 1 .136-.12l2.81-.43a.85.85 0 0 0 .637-.485l1.256-2.672a.166.166 0 0 1 .304 0l1.256 2.672a.85.85 0 0 0 .638.486l2.809.428a.168.168 0 0 1 .136.121.18.18 0 0 1-.043.183l-2.032 2.08a.916.916 0 0 0-.244.786z" transform="translate(-185 -397)" fill="url(#linear-gradient-10)"/><path d="M255 495h-20a4 4 0 0 1 4-4h12a4 4 0 0 1 4 4z" transform="translate(-185 -397)" fill="url(#linear-gradient-11)"/><path d="M255 495h-20a4 4 0 0 1 4-4h12a4 4 0 0 1 4 4z" transform="translate(-185 -397)" fill="none"/><path d="M255 495h-20a4 4 0 0 1 4-4h12a4 4 0 0 1 4 4z" transform="translate(-185 -397)" fill="url(#linear-gradient-12)"/><path class="cls-8" d="M226 476a2 2 0 0 1-2 2h-13l4-4-4-4h13a2 2 0 0 1 2 2v4z" transform="translate(-185 -397)"/><path d="M226 476a2 2 0 0 1-2 2h-13l4-4-4-4h13a2 2 0 0 1 2 2v4z" transform="translate(-185 -397)" fill="url(#linear-gradient-13)"/><path d="M257.27 448.16l2.202 12.921a.764.764 0 0 1-.309.765.754.754 0 0 1-.819.06l-11.535-6.1a3.867 3.867 0 0 0-3.618 0l-11.535 6.1a.754.754 0 0 1-.82-.06.763.763 0 0 1-.308-.765l2.203-12.92a3.923 3.923 0 0 0-1.118-3.461l-9.333-9.15a.783.783 0 0 1 .431-1.334l12.897-1.886a3.888 3.888 0 0 0 2.927-2.139l5.768-11.755a.775.775 0 0 1 1.394 0l5.768 11.756a3.888 3.888 0 0 0 2.927 2.139l12.897 1.885a.783.783 0 0 1 .43 1.334l-9.332 9.15a3.923 3.923 0 0 0-1.118 3.46z" transform="translate(-185 -397)" fill="url(#linear-gradient-14)"/><path d="M257.27 448.16l2.202 12.921a.764.764 0 0 1-.309.765.754.754 0 0 1-.819.06l-11.535-6.1a3.867 3.867 0 0 0-3.618 0l-11.535 6.1a.754.754 0 0 1-.82-.06.763.763 0 0 1-.308-.765l2.203-12.92a3.923 3.923 0 0 0-1.118-3.461l-9.333-9.15a.783.783 0 0 1 .431-1.334l12.897-1.886a3.888 3.888 0 0 0 2.927-2.139l5.768-11.755a.775.775 0 0 1 1.394 0l5.768 11.756a3.888 3.888 0 0 0 2.927 2.139l12.897 1.885a.783.783 0 0 1 .43 1.334l-9.332 9.15a3.923 3.923 0 0 0-1.118 3.46z" transform="translate(-185 -397)" fill="url(#linear-gradient-15)"/><path d="M248.049 475.86l-1.043-1.778-5.83-9.933a73.767 73.767 0 0 1 .816 9.293l1.564 2.665 5.806 9.891a76.417 76.417 0 0 1-1.313-10.139z" transform="translate(-185 -397)" fill="url(#linear-gradient-16)"/><path class="cls-8" d="M264.125 476a2 2 0 0 0 2 2h13l-4-4 4-4h-13a2 2 0 0 0-2 2v4z" transform="translate(-185 -397)"/><path d="M264.125 476a2 2 0 0 0 2 2h13l-4-4 4-4h-13a2 2 0 0 0-2 2v4z" transform="translate(-185 -397)" fill="url(#linear-gradient-17)"/></svg>