<svg id="Support" xmlns="http://www.w3.org/2000/svg" xmlns:xlink="http://www.w3.org/1999/xlink" width="120" height="120"><defs><style>.cls-2{fill:#fff}</style><linearGradient id="linear-gradient" x1="73" y1="60" x2="154.006" y2="60" gradientUnits="userSpaceOnUse"><stop offset="0" stop-color="#9fdad9" stop-opacity="0"/><stop offset=".257" stop-color="#aae3e2" stop-opacity=".242"/><stop offset=".849" stop-color="#c5f9f7" stop-opacity=".842"/><stop offset="1" stop-color="#ccfffd"/></linearGradient><linearGradient id="linear-gradient-2" x1="1116.235" y1="504.246" x2="1093.1" y2="481.096" gradientUnits="userSpaceOnUse"><stop offset="0" stop-color="#0884c2" stop-opacity=".2"/><stop offset=".983" stop-color="#0079b8"/></linearGradient><linearGradient id="linear-gradient-3" x1="1099.393" y1="487.08" x2="1077.447" y2="465.553" gradientUnits="userSpaceOnUse"><stop offset="0" stop-color="#0884c2"/><stop offset="1" stop-color="#9fdad9"/></linearGradient><linearGradient id="linear-gradient-4" x1="1088.615" y1="476.395" x2="1103.638" y2="490.83" gradientUnits="userSpaceOnUse"><stop offset="0" stop-color="#0884c2" stop-opacity="0"/><stop offset=".387" stop-color="#0884c2" stop-opacity=".01"/><stop offset=".529" stop-color="#0884c2" stop-opacity=".045"/><stop offset=".631" stop-color="#0884c2" stop-opacity=".106"/><stop offset=".714" stop-color="#0884c2" stop-opacity=".194"/><stop offset=".785" stop-color="#0884c2" stop-opacity=".308"/><stop offset=".848" stop-color="#0884c2" stop-opacity=".449"/><stop offset=".906" stop-color="#0884c2" stop-opacity=".617"/><stop offset=".957" stop-color="#0884c2" stop-opacity=".805"/><stop offset="1" stop-color="#0884c2"/></linearGradient><linearGradient id="linear-gradient-5" x1="1077.555" y1="484.124" x2="1065.824" y2="472.617" xlink:href="#linear-gradient-3"/><linearGradient id="linear-gradient-6" x1="1071.788" y1="478.41" x2="1079.756" y2="486.065" xlink:href="#linear-gradient-4"/><linearGradient id="linear-gradient-7" x1="1080.788" y1="468.765" x2="1088.872" y2="477.015" gradientUnits="userSpaceOnUse"><stop offset="0" stop-color="#07babe"/><stop offset="1" stop-color="#9fdad9"/></linearGradient><linearGradient id="linear-gradient-8" x1="1082.427" y1="470.457" x2="1092.294" y2="481.347" gradientUnits="userSpaceOnUse"><stop offset="0" stop-color="#0884c2"/><stop offset=".043" stop-color="#0884c2" stop-opacity=".805"/><stop offset=".094" stop-color="#0884c2" stop-opacity=".617"/><stop offset=".152" stop-color="#0884c2" stop-opacity=".449"/><stop offset=".215" stop-color="#0884c2" stop-opacity=".308"/><stop offset=".286" stop-color="#0884c2" stop-opacity=".194"/><stop offset=".369" stop-color="#0884c2" stop-opacity=".106"/><stop offset=".471" stop-color="#0884c2" stop-opacity=".045"/><stop offset=".613" stop-color="#0884c2" stop-opacity=".01"/><stop offset="1" stop-color="#0884c2" stop-opacity="0"/></linearGradient><linearGradient id="linear-gradient-9" x1="1096.344" y1="465.492" x2="1084.511" y2="453.885" xlink:href="#linear-gradient-3"/><linearGradient id="linear-gradient-10" x1="1090.536" y1="459.78" x2="1098.648" y2="467.575" xlink:href="#linear-gradient-4"/><linearGradient id="linear-gradient-11" x1="1055.114" y1="495.547" x2="1109.234" y2="442.756" gradientUnits="userSpaceOnUse"><stop offset=".005" stop-color="#07babe" stop-opacity=".7"/><stop offset=".101" stop-color="#05bdc1" stop-opacity=".64"/><stop offset=".315" stop-color="#01c1c5" stop-opacity=".537"/><stop offset=".473" stop-color="#00c3c7" stop-opacity=".5"/><stop offset=".735" stop-color="#03bfc3" stop-opacity=".586"/><stop offset="1" stop-color="#07babe" stop-opacity=".7"/></linearGradient><linearGradient id="linear-gradient-12" x1="1079.291" y1="467.002" x2="1129.265" y2="520.807" gradientUnits="userSpaceOnUse"><stop offset=".005" stop-color="#0884c2" stop-opacity="0"/><stop offset=".185" stop-color="#0884c2" stop-opacity=".267"/><stop offset=".383" stop-color="#0884c2" stop-opacity=".527"/><stop offset=".571" stop-color="#0884c2" stop-opacity=".732"/><stop offset=".742" stop-color="#0884c2" stop-opacity=".879"/><stop offset=".891" stop-color="#0884c2" stop-opacity=".968"/><stop offset="1" stop-color="#0884c2"/></linearGradient><linearGradient id="linear-gradient-13" x1="1064.415" y1="454.623" x2="1102.495" y2="488.222" gradientUnits="userSpaceOnUse"><stop offset="0" stop-color="#c2f2f2"/><stop offset="1" stop-color="#07babe"/></linearGradient></defs><circle cx="60" cy="60" r="60" fill="url(#linear-gradient)"/><g id="Layer_5" data-name="Layer 5"><path class="cls-2" d="M1109.77 501.765l-25-16 13-13 15 26a2.515 2.515 0 0 1-1 2 2.738 2.738 0 0 1-2 1z" transform="translate(-1025 -414)"/><path d="M1109.77 501.765l-25-16 13-13 15 26a2.515 2.515 0 0 1-1 2 2.738 2.738 0 0 1-2 1z" transform="translate(-1025 -414)" fill="url(#linear-gradient-2)"/><path d="M1101 471a17.97 17.97 0 0 0-18-18 21.793 21.793 0 0 0-2.843.175 1.3 1.3 0 0 0-.75 2.206l7.01 7.034a2 2 0 0 1 .583 1.411v4.346a2 2 0 0 1-.586 1.414l-4.828 4.828a2 2 0 0 1-1.414.586h-4.345a2 2 0 0 1-1.412-.584l-7.031-7.011a1.3 1.3 0 0 0-2.207.748A21.64 21.64 0 0 0 1065 471a18 18 0 0 0 36 0z" transform="translate(-1025 -414)" fill="url(#linear-gradient-3)"/><path d="M1101 471a17.97 17.97 0 0 0-18-18 21.793 21.793 0 0 0-2.843.175 1.3 1.3 0 0 0-.75 2.206l7.01 7.034a2 2 0 0 1 .583 1.411v4.346a2 2 0 0 1-.586 1.414l-4.828 4.828a2 2 0 0 1-1.414.586h-4.345a2 2 0 0 1-1.412-.584l-7.031-7.011a1.3 1.3 0 0 0-2.207.748A21.64 21.64 0 0 0 1065 471a18 18 0 0 0 36 0z" transform="translate(-1025 -414)" fill="url(#linear-gradient-4)"/><path d="M1069.177 472.153a1.3 1.3 0 0 1 2.207-.748l.413.412.007-.004-4.42-4.408a1.3 1.3 0 0 0-2.207.748A21.637 21.637 0 0 0 1065 471a17.94 17.94 0 0 0 7.435 14.565A17.918 17.918 0 0 1 1069 475a21.637 21.637 0 0 1 .177-2.847z" transform="translate(-1025 -414)" fill="url(#linear-gradient-5)"/><path d="M1069.177 472.153a1.3 1.3 0 0 1 2.207-.748l.413.412.007-.004-4.42-4.408a1.3 1.3 0 0 0-2.207.748A21.637 21.637 0 0 0 1065 471a17.94 17.94 0 0 0 7.435 14.565A17.918 17.918 0 0 1 1069 475a21.637 21.637 0 0 1 .177-2.847z" transform="translate(-1025 -414)" fill="url(#linear-gradient-6)"/><path d="M1086.338 462.321l-.006.008.085.086a2 2 0 0 1 .583 1.411v4.346a2 2 0 0 1-.586 1.414l-4.828 4.828a2 2 0 0 1-1.414.586h-4.345a2 2 0 0 1-1.412-.584l-.459-.457-.003.008 4.462 4.45a2 2 0 0 0 1.412.583h4.345a2 2 0 0 0 1.414-.586l4.828-4.828a2 2 0 0 0 .586-1.414v-4.346a2 2 0 0 0-.583-1.411z" transform="translate(-1025 -414)" fill="url(#linear-gradient-7)"/><path d="M1086.338 462.321l-.006.008.085.086a2 2 0 0 1 .583 1.411v4.346a2 2 0 0 1-.586 1.414l-4.828 4.828a2 2 0 0 1-1.414.586h-4.345a2 2 0 0 1-1.412-.584l-.459-.457-.003.008 4.462 4.45a2 2 0 0 0 1.412.583h4.345a2 2 0 0 0 1.414-.586l4.828-4.828a2 2 0 0 0 .586-1.414v-4.346a2 2 0 0 0-.583-1.411z" transform="translate(-1025 -414)" fill="url(#linear-gradient-8)"/><path d="M1084.155 460.145l.009-.005-.757-.759a1.3 1.3 0 0 1 .75-2.206A21.79 21.79 0 0 1 1087 457a17.918 17.918 0 0 1 10.565 3.435A17.94 17.94 0 0 0 1083 453a21.79 21.79 0 0 0-2.843.175 1.3 1.3 0 0 0-.75 2.206z" transform="translate(-1025 -414)" fill="url(#linear-gradient-9)"/><path d="M1084.155 460.145l.009-.005-.757-.759a1.3 1.3 0 0 1 .75-2.206A21.79 21.79 0 0 1 1087 457a17.918 17.918 0 0 1 10.565 3.435A17.94 17.94 0 0 0 1083 453a21.79 21.79 0 0 0-2.843.175 1.3 1.3 0 0 0-.75 2.206z" transform="translate(-1025 -414)" fill="url(#linear-gradient-10)"/><path class="cls-2" d="M1089.992 493.968a25.131 25.131 0 0 1-7 1 24 24 0 1 1 24-24c0 2.366-1.34 5.57-1.992 7.032l7 7 6-1a1.758 1.758 0 0 0 1.708-1.192l1.003-3.744a2 2 0 0 0-.647-2.05l-4.029-3.377v-5.942l3.86-2.706a2 2 0 0 0 .784-2.155l-.992-3.7a2 2 0 0 0-1.583-1.452l-4.985-.882-2.748-4.76 1.729-4.758a2 2 0 0 0-.466-2.097l-2.798-2.798a2 2 0 0 0-2.097-.465l-4.758 1.728-4.76-2.748-.882-4.985a2 2 0 0 0-1.451-1.583l-3.896-1.044a2 2 0 0 0-1.976.563l-3.879 4.133h-4.753l-3.409-4.067a2 2 0 0 0-2.05-.647l-3.779 1.012a2 2 0 0 0-1.452 1.583l-.89 5.035-4.76 2.748-4.758-1.728a2 2 0 0 0-2.097.465l-2.798 2.798a2 2 0 0 0-.466 2.097l1.728 4.758-2.747 4.76-4.985.882a2 2 0 0 0-1.583 1.452l-1.045 3.899a2 2 0 0 0 .559 1.972l3.14 2.963v6l-3.16 3.046a2 2 0 0 0-.543 1.957l1.049 3.913a2 2 0 0 0 1.583 1.452l4.985.882 2.747 4.76-1.728 4.757a2 2 0 0 0 .466 2.097l2.798 2.798a2 2 0 0 0 2.097.466l4.758-1.728 4.759 2.748.882 4.984a2 2 0 0 0 1.452 1.584l3.893 1.043a2 2 0 0 0 1.979-.567l2.983-3.192h6l3.024 3.202a2 2 0 0 0 1.972.558l3.622-.97A1.695 1.695 0 0 0 1096 506l1-5z" transform="translate(-1025 -414)"/><path d="M1089.992 493.968a25.131 25.131 0 0 1-7 1 24 24 0 1 1 24-24c0 2.366-1.34 5.57-1.992 7.032l7 7 6-1a1.758 1.758 0 0 0 1.708-1.192l1.003-3.744a2 2 0 0 0-.647-2.05l-4.029-3.377v-5.942l3.86-2.706a2 2 0 0 0 .784-2.155l-.992-3.7a2 2 0 0 0-1.583-1.452l-4.985-.882-2.748-4.76 1.729-4.758a2 2 0 0 0-.466-2.097l-2.798-2.798a2 2 0 0 0-2.097-.465l-4.758 1.728-4.76-2.748-.882-4.985a2 2 0 0 0-1.451-1.583l-3.896-1.044a2 2 0 0 0-1.976.563l-3.879 4.133h-4.753l-3.409-4.067a2 2 0 0 0-2.05-.647l-3.779 1.012a2 2 0 0 0-1.452 1.583l-.89 5.035-4.76 2.748-4.758-1.728a2 2 0 0 0-2.097.465l-2.798 2.798a2 2 0 0 0-.466 2.097l1.728 4.758-2.747 4.76-4.985.882a2 2 0 0 0-1.583 1.452l-1.045 3.899a2 2 0 0 0 .559 1.972l3.14 2.963v6l-3.16 3.046a2 2 0 0 0-.543 1.957l1.049 3.913a2 2 0 0 0 1.583 1.452l4.985.882 2.747 4.76-1.728 4.757a2 2 0 0 0 .466 2.097l2.798 2.798a2 2 0 0 0 2.097.466l4.758-1.728 4.759 2.748.882 4.984a2 2 0 0 0 1.452 1.584l3.893 1.043a2 2 0 0 0 1.979-.567l2.983-3.192h6l3.024 3.202a2 2 0 0 0 1.972.558l3.622-.97A1.695 1.695 0 0 0 1096 506l1-5z" transform="translate(-1025 -414)" fill="url(#linear-gradient-11)"/><path d="M1089.992 493.968a25.131 25.131 0 0 1-7 1 24 24 0 1 1 24-24c0 2.366-1.34 5.57-1.992 7.032l7 7 6-1a1.758 1.758 0 0 0 1.708-1.192l1.003-3.744a2 2 0 0 0-.647-2.05l-4.029-3.377v-5.942l3.86-2.706a2 2 0 0 0 .784-2.155l-.992-3.7a2 2 0 0 0-1.583-1.452l-4.985-.882-2.748-4.76 1.729-4.758a2 2 0 0 0-.466-2.097l-2.798-2.798a2 2 0 0 0-2.097-.465l-4.758 1.728-4.76-2.748-.882-4.985a2 2 0 0 0-1.451-1.583l-3.896-1.044a2 2 0 0 0-1.976.563l-3.879 4.133h-4.753l-3.409-4.067a2 2 0 0 0-2.05-.647l-3.779 1.012a2 2 0 0 0-1.452 1.583l-.89 5.035-4.76 2.748-4.758-1.728a2 2 0 0 0-2.097.465l-2.798 2.798a2 2 0 0 0-.466 2.097l1.728 4.758-2.747 4.76-4.985.882a2 2 0 0 0-1.583 1.452l-1.045 3.899a2 2 0 0 0 .559 1.972l3.14 2.963v6l-3.16 3.046a2 2 0 0 0-.543 1.957l1.049 3.913a2 2 0 0 0 1.583 1.452l4.985.882 2.747 4.76-1.728 4.757a2 2 0 0 0 .466 2.097l2.798 2.798a2 2 0 0 0 2.097.466l4.758-1.728 4.759 2.748.882 4.984a2 2 0 0 0 1.452 1.584l3.893 1.043a2 2 0 0 0 1.979-.567l2.983-3.192h6l3.024 3.202a2 2 0 0 0 1.972.558l3.622-.97A1.695 1.695 0 0 0 1096 506l1-5z" transform="translate(-1025 -414)" fill="url(#linear-gradient-12)"/><path d="M1083.01 442.01a29 29 0 0 0-29 29c0 20.67 20.876 34.443 39.882 26.881l-3.9-3.923a25.154 25.154 0 0 1-7.002 1.02 24 24 0 1 1 24-24c0 2.366-1.338 5.55-1.99 7.012l4.5 4.5c8.067-19-5.547-40.49-26.49-40.49z" transform="translate(-1025 -414)" fill="url(#linear-gradient-13)"/></g></svg>