<svg width="22" height="22" xmlns="http://www.w3.org/2000/svg" xmlns:xlink="http://www.w3.org/1999/xlink"><defs><path d="M21 16.976a1.01 1.01 0 0 0-.857-1.043 13.955 13.955 0 0 1-3.05-.758 1.006 1.006 0 0 0-1.057.222l-1.278 1.275c-.32.32-.815.386-1.209.163a17.086 17.086 0 0 1-6.414-6.401 1.002 1.002 0 0 1 .163-1.206l1.274-1.271c.276-.279.365-.693.226-1.062a13.848 13.848 0 0 1-.758-3.032A1.008 1.008 0 0 0 7.024 3H4.006a1.007 1.007 0 0 0-1.002 1.079A18.849 18.849 0 0 0 5.94 12.35a18.605 18.605 0 0 0 5.735 5.72 18.915 18.915 0 0 0 8.227 2.925 1.008 1.008 0 0 0 1.096-1.008v-3.012zm2 3.003a3.008 3.008 0 0 1-.977 2.23 3.028 3.028 0 0 1-2.328.778 20.909 20.909 0 0 1-9.105-3.23 20.576 20.576 0 0 1-6.335-6.322 20.85 20.85 0 0 1-3.243-9.154 3.007 3.007 0 0 1 .776-2.3A3.018 3.018 0 0 1 4.013 1H7.02a3.016 3.016 0 0 1 3.016 2.597c.118.888.335 1.76.648 2.597.414 1.1.15 2.34-.682 3.18l-.721.72a15.063 15.063 0 0 0 4.61 4.6l.724-.723a3.018 3.018 0 0 1 3.179-.678c.84.313 1.714.53 2.613.649A3.012 3.012 0 0 1 23 16.983v2.995z" id="a"/></defs><g transform="translate(-1 -1)" fill="none" fill-rule="evenodd" opacity=".65"><path d="M0 0h24v24H0z"/><use fill="#000" fill-rule="nonzero" xlink:href="#a"/></g></svg>